<?xml version="1.0" encoding="UTF-8" standalone="no"?>
<!-- Created with Inkscape (http://www.inkscape.org/) -->

<svg
   width="115mm"
   height="95mm"
   viewBox="0 0 115 95"
   version="1.1"
   id="svg2315"
   inkscape:version="1.2-alpha1 (b6a15bbbed, 2022-02-23)"
   sodipodi:docname="beer.svg"
   xmlns:inkscape="http://www.inkscape.org/namespaces/inkscape"
   xmlns:sodipodi="http://sodipodi.sourceforge.net/DTD/sodipodi-0.dtd"
   xmlns="http://www.w3.org/2000/svg"
   xmlns:svg="http://www.w3.org/2000/svg">
  <sodipodi:namedview
     id="namedview2317"
     pagecolor="#ffffff"
     bordercolor="#000000"
     borderopacity="0.25"
     inkscape:pageshadow="2"
     inkscape:pageopacity="0.0"
     inkscape:pagecheckerboard="0"
     inkscape:deskcolor="#d1d1d1"
     inkscape:document-units="mm"
     showgrid="false"
     inkscape:zoom="2.1745121"
     inkscape:cx="283.51188"
     inkscape:cy="212.00158"
     inkscape:window-width="1920"
     inkscape:window-height="1017"
     inkscape:window-x="-8"
     inkscape:window-y="-8"
     inkscape:window-maximized="1"
     inkscape:current-layer="layer1" />
  <defs
     id="defs2312" />
  <g
     inkscape:label="Layer 1"
     inkscape:groupmode="layer"
     id="layer1"
     transform="translate(-4.0259966,-202.55945)">
    <path
       style="fill:none;stroke-width:0.11;stroke-miterlimit:4;stroke-dasharray:none;stroke:#000000;stroke-opacity:1"
       d="m 29.303894,295.94224 c -2.146706,-0.54776 -3.827095,-2.31443 -4.82527,-5.07303 -1.549898,-4.28335 -0.491841,-8.66278 2.502751,-10.3592 l 0.650767,-0.36865 -0.411448,-0.17271 c -0.755801,-0.31726 -2.057023,-0.30594 -4.120891,0.0358 -3.411993,0.56504 -4.620555,0.53575 -6.014762,-0.14579 -1.428259,-0.69818 -4.324905,-4.48167 -6.057905,-7.9126 -1.9001061,-3.76176 -3.1274203,-7.59128 -4.5101966,-14.07293 -0.6569121,-3.07922 -0.6871173,-4.25692 -0.1490522,-5.81154 0.4985557,-1.44046 1.4965096,-2.91207 2.9568969,-4.36032 1.3176199,-1.30667 3.9736459,-3.50444 4.7793649,-3.95477 0.806487,-0.45075 1.475329,-1.0881 1.76088,-1.67797 0.221735,-0.45805 0.255538,-0.68746 0.207116,-1.40568 -0.0587,-0.87061 -0.116459,-1.04246 -1.341156,-3.98996 -0.725533,-1.74615 -0.953589,-2.9521 -0.867323,-4.58638 0.03648,-0.69103 0.158542,-1.60642 0.271256,-2.03421 0.891854,-3.38485 3.313592,-6.3644 6.811011,-8.37983 8.16864,-4.70728 16.876681,-6.25505 24.200014,-4.30132 1.763648,0.47052 2.433348,0.74301 3.391404,1.37992 1.645164,1.0937 3.139776,3.03088 3.943393,5.11105 0.730894,1.89192 0.8638,2.67921 0.893498,5.29274 0.0294,2.58743 0.0308,2.59636 1.017015,6.52144 0.388884,1.54772 0.987841,3.70784 2.580354,9.30591 l 0.179391,0.63061 0.454463,-0.36522 c 1.288098,-1.03514 3.630388,-1.24291 5.188043,-0.4602 0.567136,0.28498 1.268085,0.89902 1.543788,1.35238 0.150598,0.24764 0.231088,0.30095 0.271002,0.17949 0.09489,-0.28873 0.869661,-5.51344 1.993582,-13.44373 0.586743,-4.14002 1.100295,-7.63282 1.141225,-7.76178 0.147405,-0.46443 0.05611,-2.08626 -0.186782,-3.31796 -0.401008,-2.03354 -0.432385,-2.91522 -0.149627,-4.2044 0.135163,-0.61624 0.299983,-1.45181 0.366266,-1.85682 0.641891,-3.92208 4.727274,-7.36359 9.900408,-8.34007 2.79182,-0.52698 9.09609,-0.57462 12.230973,-0.0924 5.128778,0.78889 9.205441,2.40691 12.783257,5.07365 0.65029,0.4847 1.46845,1.19516 1.81813,1.57881 2.82462,3.09897 3.44875,8.2611 1.55569,12.86695 -0.25697,0.62522 -0.49702,1.20288 -0.53343,1.2837 -0.0371,0.0823 0.47844,0.69257 1.17208,1.38745 0.88228,0.88387 1.65114,1.50942 2.67422,2.17577 5.2886,3.44456 6.04945,4.04604 7.09431,5.60824 0.67522,1.00954 0.91047,1.90554 1.10582,4.21189 0.21418,2.52866 -0.0916,5.28552 -1.18926,10.72165 -0.91934,4.55306 -1.77803,7.35414 -3.06061,9.98381 -1.56456,3.20783 -3.36915,4.95866 -5.97523,5.79722 -0.88591,0.28506 -0.78258,0.28424 -5.33409,0.0427 -1.39306,-0.0739 -2.255095,0.0664 -2.359069,0.38412 -0.07453,0.22772 0.547169,0.85747 1.131869,1.14651 0.30544,0.15101 0.86792,0.56292 1.24995,0.91537 1.63907,1.51217 2.31891,4.30093 1.83981,7.54709 -0.22817,1.54601 -0.74348,3.26309 -1.23321,4.10922 -0.49069,0.84778 -1.50661,1.81046 -2.34403,2.22119 -1.371252,0.67257 -2.364805,0.78773 -5.764039,0.66811 -1.645317,-0.0579 -3.518603,-0.0907 -4.162858,-0.0729 -1.110342,0.0307 -1.205748,0.0544 -1.831208,0.45446 -1.145038,0.73248 -2.103478,1.03082 -3.518862,1.09535 -1.660731,0.0757 -2.578787,-0.11837 -6.102633,-1.29017 -3.11929,-1.03727 -3.096307,-1.03169 -3.769274,-0.91406 -0.263251,0.046 -1.314843,0.13226 -2.336873,0.19166 -2.794098,0.16238 -3.346952,0.46881 -3.346952,1.85514 0,0.97299 -0.374504,2.05302 -1.012327,2.91944 -1.112421,1.51111 -3.08571,2.46812 -5.987753,2.90394 -1.185813,0.17808 -5.546023,0.21056 -7.245608,0.054 -1.685488,-0.15529 -2.6922,0.2071 -6.451184,2.32224 -3.048869,1.71558 -4.642862,1.92282 -7.059434,0.91783 -0.876136,-0.36435 -0.953876,-0.37508 -2.697031,-0.37221 -1.595664,0.003 -2.047248,0.0537 -4.068422,0.45963 -2.585474,0.51933 -4.596595,0.6592 -5.642198,0.39239 z m 5.10373,-0.59554 c 2.439641,-0.52804 3.916372,-0.71318 5.205187,-0.6526 l 1.196595,0.0563 -0.837616,-0.17985 c -0.515848,-0.11076 -1.527122,-0.18395 -2.632509,-0.19052 -1.726234,-0.0103 -1.824644,0.002 -2.572679,0.33214 -1.371267,0.6044 -2.074188,0.81543 -2.931487,0.88011 -1.689799,0.12749 -3.308354,-0.50342 -4.580875,-1.7856 -0.86301,-0.86956 -1.081642,-1.17149 -1.647115,-2.27465 -1.280424,-2.49794 -1.503871,-6.18396 -0.480705,-7.92986 0.155297,-0.265 0.908263,-1.06618 1.673254,-1.78041 0.764993,-0.71423 1.448142,-1.40556 1.518111,-1.5363 0.244167,-0.45623 0.02699,-0.80873 -0.704609,-1.14367 -0.839498,-0.38434 -1.117432,-0.38224 -2.479162,0.0187 l -1.076935,0.3171 0.897446,-0.0678 c 1.394177,-0.10529 3.117712,0.32093 3.106242,0.76815 -0.0028,0.11119 -0.265799,0.31286 -0.628213,0.48182 -0.887026,0.41354 -2.109248,1.67236 -2.575956,2.65308 -0.609757,1.28133 -0.772825,2.205 -0.705561,3.99658 0.04556,1.21348 0.128362,1.79032 0.376525,2.62306 0.336105,1.12784 0.925226,2.39979 1.492993,3.22347 0.784683,1.13837 2.190443,2.17946 3.330968,2.46688 0.798611,0.20126 3.543019,0.0514 5.056101,-0.27611 z m 11.105259,0.26503 c 0.72154,-0.17174 2.609799,-1.06103 4.211154,-1.98328 1.604676,-0.92415 2.799894,-1.44469 3.80756,-1.65826 1.044578,-0.22139 1.601153,-0.21611 2.801196,0.0265 0.882024,0.17836 1.256326,0.18464 3.44264,0.0578 3.64762,-0.21159 5.396349,-0.63656 6.981116,-1.69651 1.535375,-1.02693 2.216066,-2.16204 2.348785,-3.91683 0.07607,-1.00577 0.117138,-1.1466 0.429396,-1.47253 0.490052,-0.51151 1.259898,-0.694 3.590032,-0.85102 3.152432,-0.21244 2.915079,-0.24351 5.915847,0.77458 3.248039,1.10199 4.141346,1.30954 5.623996,1.30668 1.38254,-0.003 2.328951,-0.2732 3.530378,-1.00918 l 0.837192,-0.51285 2.034212,0.007 c 1.118816,0.004 3.111146,0.0284 4.4274,0.0551 1.971964,0.04 2.535541,0.0128 3.20196,-0.15465 2.179633,-0.54776 3.502023,-1.82347 4.271763,-4.12099 0.97318,-2.90474 0.96901,-6.05575 -0.0108,-8.13472 -0.45969,-0.97541 -1.35565,-1.93881 -2.24289,-2.4117 -0.909784,-0.48491 -1.356566,-0.99721 -1.307553,-1.49929 0.05536,-0.56709 0.462558,-0.70049 2.115043,-0.69286 0.76523,0.004 2.08366,0.0633 2.92984,0.13285 1.71958,0.14131 2.45197,0.0378 3.72954,-0.52723 0.76033,-0.33625 0.85617,-0.5452 0.10509,-0.2291 -0.67315,0.28329 -2.2836,0.34177 -4.69964,0.17063 -2.44611,-0.17326 -3.26343,-0.0821 -4.022948,0.4488 -0.671527,0.46938 -1.279726,1.58032 -0.865168,1.58032 0.329412,0 1.850656,0.8317 2.378066,1.30014 2.47181,2.19547 3.02973,6.89548 1.23706,10.42133 -1.51134,2.97254 -3.334141,3.62867 -9.155644,3.29562 -4.118888,-0.23563 -5.568229,-0.0283 -7.415996,1.06064 l -0.897446,0.52891 -0.792251,-0.10016 c -1.070535,-0.13533 -2.400116,-0.48436 -4.570832,-1.19987 -3.259668,-1.07446 -4.866336,-1.39024 -6.363546,-1.25073 -0.836684,0.078 -3.093942,0.76715 -3.601213,1.09953 -0.402276,0.26358 -0.709513,1.02993 -1.000018,2.49436 -0.293657,1.48031 -0.585918,2.23455 -1.059094,2.73321 -0.382101,0.40267 -0.998423,0.73506 -1.579073,0.85159 -0.230345,0.0462 -0.699956,0.18608 -1.04358,0.31078 -1.639489,0.59498 -2.855109,0.73066 -7.452243,0.83178 -3.860892,0.0849 -4.485228,0.12569 -5.381767,0.35141 -1.264305,0.31832 -2.496248,0.90403 -3.420507,1.62622 -1.81236,1.41612 -3.60758,1.78156 -6.45431,1.31383 -1.302953,-0.21408 -1.463983,-0.21485 -0.837616,-0.004 0.263251,0.0886 0.855565,0.29927 1.316254,0.46811 0.927046,0.33975 1.963513,0.40331 2.908585,0.17837 z m -11.733178,-0.87007 c 2.020172,-0.91214 3.43477,-0.97791 7.089531,-0.32966 1.085909,0.19261 2.351308,0.38661 2.811997,0.4311 1.662742,0.1606 3.318011,-0.33224 4.54402,-1.35292 1.067128,-0.8884 2.71914,-1.61113 4.430441,-1.93825 0.394877,-0.0755 2.683364,-0.18199 5.085528,-0.23669 4.598515,-0.10471 5.082717,-0.1583 6.94025,-0.76814 0.493595,-0.16205 1.127187,-0.35348 1.407983,-0.4254 0.648621,-0.16613 1.320089,-0.75304 1.609159,-1.40652 0.123781,-0.27983 0.354993,-1.13538 0.513806,-1.90122 0.355453,-1.71412 0.685288,-2.42301 1.255431,-2.69819 1.581729,-0.76343 2.794337,-1.05099 4.427401,-1.04993 1.579372,0.001 2.646253,0.2327 5.752606,1.24912 1.317443,0.43107 2.989033,0.90091 3.714644,1.04407 1.263263,0.24925 1.332905,0.25143 1.639762,0.0514 0.842151,-0.54891 2.317321,-1.15872 3.252125,-1.34437 0.87923,-0.17462 1.357736,-0.18746 3.529954,-0.0947 5.248585,0.22402 6.586625,0.11045 8.086363,-0.68632 1.945454,-1.03357 3.390154,-4.40124 3.179314,-7.41117 -0.21096,-3.01184 -1.86299,-5.43164 -4.214251,-6.17281 -0.724128,-0.22826 -0.774841,-0.34769 -0.463806,-1.09228 0.237134,-0.56768 0.702568,-1.05706 1.309906,-1.3773 0.615801,-0.3247 2.355071,-0.40371 4.778241,-0.21705 2.55085,0.19649 4.00095,-0.0762 4.89765,-0.92107 0.43279,-0.40776 2.05472,-2.83568 2.7659,-4.14034 2.38546,-4.37618 3.74499,-10.18637 4.49895,-19.22705 0.17023,-2.04122 0.0322,-2.9564 -0.63654,-4.21975 -0.46081,-0.87056 -1.84187,-2.35877 -2.94958,-3.17842 -1.22729,-0.90812 -4.88777,-3.23437 -5.78829,-3.67846 -1.00189,-0.49409 -1.77535,-1.19315 -2.13705,-1.9315 -0.4259,-0.86942 -0.37774,-2.39781 0.13463,-4.27237 1.0303,-3.76944 1.13628,-4.70732 0.71711,-6.34626 -0.92411,-3.61323 -3.89033,-6.59135 -8.494721,-8.5288 -2.489724,-1.04764 -6.041647,-2.03215 -8.503632,-2.35701 -7.124375,-0.94005 -12.408046,-0.1348 -16.521624,2.51797 -2.005701,1.29344 -3.150482,3.06132 -3.710669,5.73034 -0.22276,1.06136 -0.248421,1.52144 -0.214084,3.83841 0.08656,5.84089 0.116851,5.40732 -0.886042,12.6839 -1.324468,9.6098 -2.357638,15.73522 -2.654045,15.73522 -0.07868,0 -0.342836,-0.30089 -0.587009,-0.66864 -1.277252,-1.92368 -3.343592,-3.0035 -4.927972,-2.57523 -0.712397,0.19256 -1.536918,0.97172 -1.926538,1.82055 -0.210425,0.45843 -0.389969,0.70057 -0.503285,0.67875 -0.344387,-0.0663 -1.459099,-3.68545 -3.345679,-10.8624 -1.02685,-3.90635 -1.107257,-4.35764 -1.390545,-7.80445 -0.289523,-3.52269 -0.602734,-4.94199 -1.446494,-6.55468 -0.877718,-1.67761 -1.980341,-2.65637 -4.203258,-3.7311 -3.026727,-1.46335 -6.829224,-1.84912 -11.534347,-1.17017 -3.068831,0.44283 -5.338385,1.01609 -7.884891,1.99164 -6.585746,2.52294 -10.610494,5.92211 -11.945998,10.08919 -0.351396,1.09644 -0.618555,2.33124 -0.616478,2.84934 0.0035,0.87726 0.385246,2.03354 1.311062,3.97125 0.518835,1.08591 1.034616,2.29358 1.146181,2.6837 0.255192,0.89236 0.184117,1.97651 -0.175831,2.68206 -0.385817,0.75627 -2.446664,2.77011 -4.556711,4.45279 -3.0606417,2.44074 -4.401404,3.96795 -5.090285,5.79814 -0.3570739,0.94865 -0.3634496,1.37054 -0.052672,3.48533 0.735571,5.00545 2.0360047,9.47911 4.117084,14.16331 0.839011,1.88849 2.924158,5.66387 3.569916,6.46372 2.211998,2.7398 6.357795,3.56842 10.841861,2.16696 0.753944,-0.23564 0.769422,-0.23574 1.495743,-0.009 0.887195,0.27693 1.36823,0.64938 1.460214,1.13059 0.09963,0.52118 -0.378283,1.1612 -1.83406,2.4562 -1.349843,1.20076 -1.732888,1.74919 -1.941139,2.7792 -0.177388,0.87738 -0.178678,2.58755 -0.0027,3.5581 0.346612,1.91145 1.391856,3.92408 2.644231,5.0915 1.333025,1.2426 2.34407,1.63418 4.058368,1.57181 1.00843,-0.0367 1.250409,-0.0921 2.122846,-0.48601 z m -3.307403,-0.49437 c -2.356695,-0.66041 -4.223534,-2.71387 -4.764799,-5.24114 -0.270496,-1.26298 -0.09239,-3.99305 0.323591,-4.96002 0.654027,-1.52032 2.092409,-2.04654 3.991085,-1.4601 0.92444,0.28553 2.414173,1.24516 2.973294,1.91529 l 0.395045,0.47348 0.02896,-0.6276 c 0.04163,-0.90211 0.679261,-2.13123 1.589918,-3.06478 1.950297,-1.99933 5.622844,-3.60914 8.185222,-3.58788 1.181889,0.01 1.856292,-0.24474 2.455,-0.92663 0.484434,-0.55174 0.743638,-1.08067 1.449237,-2.95731 0.326384,-0.86806 0.795455,-1.87445 1.04238,-2.23642 l 0.448954,-0.65813 1.434454,-0.0619 c 1.571905,-0.0679 1.955101,-0.19622 2.492374,-0.83473 0.867943,-1.03149 0.430989,-3.42735 -1.057463,-5.79818 -0.356996,-0.56863 -0.841847,-1.25907 -1.077444,-1.53432 -0.570731,-0.66676 -0.943471,-1.88203 -0.873586,-2.84819 0.07829,-1.08241 0.631839,-1.69546 1.711254,-1.89519 1.569159,-0.29036 3.340147,0.60595 4.101795,2.07595 0.286376,0.55271 0.32018,0.76867 0.385153,2.46061 0.07896,2.05614 0.199118,2.49545 0.827068,3.02384 1.177265,0.9906 3.002273,0.43142 3.779996,-1.15819 0.347993,-0.71127 0.354363,-0.79934 0.269141,-3.72037 -0.06166,-2.11351 -0.221769,-3.16114 -0.915777,-5.99221 -0.836591,-3.41272 -0.898309,-3.80483 -0.902571,-5.73442 -0.0045,-2.02441 0.08462,-2.34464 0.762154,-2.73923 0.991327,-0.57734 2.249444,-0.12789 3.179849,1.13597 0.995353,1.35209 1.20326,2.42773 0.838097,4.33604 -0.09871,0.51584 -0.179469,1.54533 -0.179469,2.28777 0,2.97877 0.742577,5.57485 3.167486,11.07365 3.002053,6.80755 3.695597,9.6825 2.821013,11.69396 -0.658471,1.51443 -1.998058,2.19861 -5.56969,2.84466 -3.104343,0.56153 -4.409474,1.01453 -5.381307,1.86782 -0.474956,0.41701 -0.957615,1.04693 -0.869616,1.13492 0.05588,0.0559 2.244054,-0.84365 3.079947,-1.26612 0.868073,-0.43873 2.767722,-1.08167 3.504081,-1.18595 1.623901,-0.22997 2.405036,0.18817 2.928849,1.56781 0.712931,1.87775 0.767392,2.1328 0.722956,3.38586 -0.03703,1.04412 -0.09085,1.29964 -0.422375,2.00531 -0.695937,1.48134 -2.076215,2.64833 -3.801854,3.21437 -0.950838,0.31189 -2.114806,0.35224 -5.085528,0.17629 -4.219782,-0.24992 -8.53247,0.88017 -12.496541,3.27458 -0.903845,0.54595 -1.066215,0.60306 -1.714683,0.60306 -1.322134,0 -1.942806,-0.28693 -1.942806,-0.89811 0,-0.15977 0.345108,-0.95192 0.766905,-1.76032 0.903813,-1.73222 1.009731,-2.14343 0.720338,-2.79665 l -0.207366,-0.46807 -0.09187,0.5706 c -0.233912,1.45283 -1.156308,2.53027 -2.876865,3.36041 -1.259243,0.60756 -2.078572,0.84526 -3.99497,1.15898 -0.72394,0.11851 -1.693181,0.36163 -2.15387,0.54026 -1.053882,0.40865 -2.966104,0.51907 -3.995152,0.23071 z m 2.523033,-0.17053 c 0.374963,-0.0614 1.021124,-0.25111 1.435913,-0.42153 0.41479,-0.17043 1.21186,-0.36764 1.771268,-0.43824 2.466711,-0.31133 4.708622,-1.16253 5.783722,-2.19594 0.663153,-0.63744 1.133463,-1.56699 1.23757,-2.44599 0.08081,-0.6823 0.221408,-0.75067 0.636051,-0.30931 0.342454,0.36453 0.459037,1.36599 0.238835,2.05164 -0.08163,0.25417 -0.437801,0.9771 -0.791492,1.60652 -0.353691,0.62941 -0.643074,1.25905 -0.643074,1.39921 0,0.42957 0.439757,0.62738 1.394758,0.62738 0.759744,0 0.935325,-0.045 1.469118,-0.37687 0.333437,-0.20727 0.606249,-0.38785 0.606249,-0.40128 0,-0.0134 -0.282696,0.0511 -0.628213,0.1434 -0.713347,0.19055 -1.474935,0.11944 -1.791766,-0.16728 -0.267895,-0.24245 -0.2806,-0.99278 -0.02517,-1.48672 0.103046,-0.19927 0.36536,-0.5955 0.58292,-0.88052 0.712133,-0.93295 0.66542,-1.99528 -0.117982,-2.68312 -0.667669,-0.58622 -1.422424,-0.4806 -1.8013,0.25206 -0.151716,0.29339 -0.176628,0.55394 -0.113863,1.19091 l 0.08034,0.81536 -0.874566,0.56644 c -2.179004,1.4113 -5.140552,2.28811 -8.413113,2.49082 -1.462452,0.0906 -3.479752,-0.0872 -3.991317,-0.35172 -0.512857,-0.26521 -1.401717,-1.28987 -1.79535,-2.06965 -0.752186,-1.49008 -0.914264,-2.20661 -0.914264,-4.04191 0,-1.49498 0.0296,-1.73945 0.275079,-2.27204 0.538983,-1.16937 1.264005,-1.63704 2.550376,-1.64509 1.017527,-0.006 1.160959,0.0841 2.270365,1.43167 1.136816,1.38088 2.008611,2.28481 2.405153,2.49379 0.30318,0.15978 0.496355,0.0982 0.709754,-0.22628 0.0077,-0.0118 0.05142,-0.77523 0.09709,-1.6966 0.09154,-1.84677 0.217955,-2.23721 1.060751,-3.27621 1.182663,-1.45799 4.206701,-2.95008 7.176895,-3.54116 l 0.805159,-0.16022 -0.854144,-0.0113 c -1.518031,-0.02 -4.102875,0.92378 -6.019024,2.19763 -1.05543,0.70165 -2.27766,2.00421 -2.713501,2.89184 -0.291675,0.59403 -0.34456,0.84626 -0.34179,1.63013 0.0037,1.05807 -0.104027,1.15023 -0.593915,0.50796 -1.177292,-1.54351 -2.981323,-2.57208 -4.511209,-2.57208 -1.242874,0 -2.07734,0.62212 -2.430759,1.81221 -0.293113,0.98702 -0.378269,3.71059 -0.144375,4.61765 0.397695,1.5423 1.338083,2.95379 2.538753,3.81057 0.866407,0.61825 1.39492,0.85571 2.383779,1.07103 0.895216,0.19492 1.145632,0.20278 2.000287,0.0628 z m 2.788373,-1.32455 c 2.144609,-0.452 4.06262,-1.20415 5.6047,-2.19787 l 0.579003,-0.37312 -0.06632,-0.59829 c -0.189349,-1.70826 0.854299,-2.66037 2.176658,-1.98576 0.720595,0.36762 1.018135,1.00335 0.959045,2.04911 -0.04097,0.72508 -0.09305,0.86392 -0.542567,1.44658 -0.458115,0.5938 -0.753166,1.15381 -0.753166,1.42951 0,0.0615 0.107694,0.21957 0.239319,0.35119 0.55012,0.55012 1.862817,0.18858 3.301845,-0.9094 1.20195,-0.91709 2.027403,-1.3882 3.00034,-1.71241 1.563201,-0.52089 2.523878,-0.60929 7.913835,-0.72823 3.138271,-0.0693 5.358439,-0.16729 5.629822,-0.2486 1.050284,-0.31467 2.000053,-1.33135 2.550996,-2.73071 0.210422,-0.53446 0.265551,-0.92598 0.271352,-1.92715 0.0066,-1.14441 -0.02285,-1.31778 -0.330661,-1.94463 -0.508212,-1.03494 -1.006643,-1.28661 -2.544399,-1.28472 -1.082437,10e-4 -1.264504,0.0362 -2.083527,0.39952 -0.493596,0.21893 -1.489761,0.73115 -2.213701,1.13827 -2.537507,1.427 -3.159584,1.3025 -2.839141,-0.56823 0.165178,-0.96431 0.591646,-1.57989 1.552392,-2.24078 0.991128,-0.6818 1.869836,-0.95054 4.639608,-1.41899 3.465317,-0.58608 4.414698,-1.00906 5.331456,-2.37532 l 0.496142,-0.73941 -0.0783,-1.05916 c -0.156271,-2.11391 -0.86349,-4.25473 -2.794709,-8.45984 -0.590917,-1.28669 -1.270605,-2.8633 -1.510417,-3.50357 -0.239812,-0.64028 -0.591624,-1.41833 -0.781804,-1.72899 -0.821456,-1.34189 -1.149661,-3.16528 -1.027816,-5.71021 0.189708,-3.96242 0.07997,-5.28616 -0.545586,-6.58127 -0.504409,-1.04429 -0.865389,-1.41282 -1.292085,-1.3191 -0.476441,0.10464 -0.808889,0.50278 -0.975649,1.16842 -0.204763,0.81734 -0.01,1.98474 0.923004,5.53221 0.432269,1.64359 0.827549,3.39361 0.878403,3.88893 0.05085,0.49533 0.186905,1.14291 0.302337,1.43906 0.289119,0.74178 0.291975,2.64757 0.0056,3.76928 -0.685004,2.68353 -2.448877,4.55835 -4.061144,4.31657 -0.674997,-0.10122 -1.528165,-0.66416 -2.057773,-1.35776 -0.347299,-0.45485 -0.412478,-0.63793 -0.412478,-1.15859 0,-2.09613 -1.858373,-5.81925 -3.054485,-6.11945 -0.433276,-0.10875 -0.86857,0.2319 -1.292682,1.0116 l -0.338572,0.62245 1.215918,2.26693 c 2.585028,4.81948 2.972849,6.63045 1.717495,8.01997 -0.588315,0.6512 -1.465307,0.95591 -3.060444,1.06336 -1.837803,0.1238 -2.041859,0.37072 -2.480638,3.00171 -0.37861,2.27021 -0.912047,3.1464 -2.099861,3.44912 -0.263251,0.0671 -1.022466,0.18175 -1.687146,0.2548 -3.973626,0.4367 -7.775426,2.40896 -8.83525,4.58346 -0.310913,0.63792 -0.336954,0.80245 -0.351214,2.21899 -0.01829,1.81647 -0.159657,2.17754 -0.852593,2.17754 -0.338408,0 -0.544205,-0.12409 -1.141141,-0.68805 -0.40055,-0.37842 -1.196224,-1.25149 -1.768161,-1.94015 -1.1448,-1.37843 -1.436834,-1.54245 -2.470322,-1.38747 -2.250996,0.33756 -2.903527,3.88543 -1.321782,7.18664 0.708673,1.47905 1.574524,2.29501 2.610981,2.46052 1.095925,0.17501 4.439601,0.0309 5.765232,-0.24851 z m 13.042883,-0.89681 c 3.564978,-1.51484 6.500225,-1.94896 11.42748,-1.69011 1.697481,0.0892 2.082122,0.0754 2.7426,-0.0983 2.397057,-0.63034 4.094783,-2.35026 4.467444,-4.52584 0.159134,-0.92902 0.03608,-1.77192 -0.442602,-3.03189 -0.713707,-1.87858 -0.985486,-2.14244 -2.199666,-2.13563 -1.052764,0.006 -2.104154,0.34064 -4.717427,1.50189 -1.168217,0.51911 -2.339385,0.97828 -2.602593,1.02037 -0.422791,0.0676 -0.478562,0.0489 -0.478562,-0.16014 0,-0.31904 0.557709,-1.06844 1.246061,-1.67435 0.874766,-0.77 1.989536,-1.16257 5.016531,-1.7666 1.481196,-0.29556 2.982637,-0.64572 3.336532,-0.77813 2.879209,-1.07725 3.394729,-3.00264 1.985511,-7.41559 -0.4759,-1.49028 -1.024813,-2.86107 -2.374051,-5.92868 -1.458725,-3.31654 -2.169796,-5.21264 -2.608416,-6.95545 -0.674428,-2.67976 -0.766742,-4.86353 -0.304079,-7.19318 0.186218,-0.93766 0.185977,-1.04866 -0.0037,-1.73106 -0.449865,-1.61807 -1.789638,-3.08634 -2.816232,-3.08634 -0.423643,0 -1.05622,0.32129 -1.216935,0.61808 -0.214784,0.39665 -0.283337,2.77068 -0.114115,3.95189 0.07834,0.54681 0.431404,2.20575 0.784595,3.68653 0.769406,3.2258 0.866757,3.92805 0.954126,6.88269 0.05571,1.88393 0.0349,2.37087 -0.120846,2.82796 -0.410411,1.20449 -1.667498,2.13564 -2.883195,2.13564 -0.997837,0 -1.586175,-0.31942 -2.093809,-1.13676 -0.198667,-0.31988 -0.223001,-0.33066 -0.223399,-0.0989 -0.0012,0.69138 1.555951,1.95365 2.410026,1.95365 2.206912,0 4.333865,-4.50705 3.5011,-7.41889 -0.10352,-0.36197 -0.264039,-1.16967 -0.356707,-1.79489 -0.09267,-0.62522 -0.461414,-2.2137 -0.819434,-3.52996 -0.838442,-3.08251 -1.026031,-4.02799 -1.025803,-5.17022 2.39e-4,-1.43138 0.5229,-2.20251 1.514071,-2.23406 0.43536,-0.0138 0.484876,0.0241 0.965352,0.74005 0.278549,0.41506 0.627423,1.11507 0.775275,1.55558 0.257543,0.76731 0.269163,0.97663 0.27694,4.989 0.0091,4.67614 0.01541,4.7215 0.887611,6.34195 0.247963,0.46069 0.601873,1.24146 0.786464,1.73506 0.184592,0.49359 0.872691,2.08207 1.52911,3.52995 2.163442,4.77196 2.616001,6.17339 2.90271,8.98875 0.0646,0.63438 0.03415,0.81201 -0.227886,1.32911 -0.877934,1.73252 -1.990825,2.29764 -5.748236,2.91891 -3.21699,0.53192 -4.278933,0.94312 -5.299382,2.05199 -0.540988,0.58786 -0.79166,1.26571 -0.732239,1.98006 0.0351,0.42193 0.05505,0.44027 0.466476,0.42881 0.292639,-0.008 0.922763,-0.28317 1.974382,-0.86172 2.754264,-1.51528 2.766568,-1.5195 4.435661,-1.5195 1.424495,0 1.465987,0.008 1.967843,0.36008 1.046162,0.73478 1.508789,2.43928 1.152668,4.2469 -0.350898,1.78112 -1.205057,3.05844 -2.455988,3.67272 -0.57424,0.28199 -0.85632,0.3401 -1.760723,0.36269 -7.333139,0.18323 -10.034701,0.28055 -10.569599,0.38073 -1.717997,0.32176 -2.938772,0.85879 -4.298091,1.89076 -0.842278,0.63944 -1.145245,0.93622 -0.598297,0.58608 0.148078,-0.0948 0.861548,-0.42404 1.585488,-0.73166 z m -2.6725,-14.19004 c 0.805503,-0.4085 1.150526,-1.16487 1.530628,-3.3555 0.132895,-0.76591 0.273246,-1.49284 0.311891,-1.6154 0.21154,-0.67088 -0.250835,0.33388 -0.655395,1.4242 -0.95121,2.5636 -1.567795,3.37954 -2.881421,3.81308 -0.182253,0.0602 0.0052,0.0709 0.477864,0.0275 0.427783,-0.0393 0.975177,-0.17156 1.216433,-0.29391 z m 3.461444,-6.21084 c 0.797372,0 2.189599,-0.22113 2.678576,-0.42543 0.996535,-0.41638 1.498348,-1.1585 1.498348,-2.21588 0,-1.2993 -0.531716,-2.67054 -2.386154,-6.15366 -0.595667,-1.11882 -1.083242,-2.1571 -1.0835,-2.30729 -7.18e-4,-0.42833 0.335275,-1.1263 0.747024,-1.55173 0.631927,-0.65292 1.564634,-0.50286 2.336172,0.37588 0.5299,0.60352 1.213102,1.87627 1.587384,2.95718 l 0.324575,0.93735 0.07898,-0.69813 c 0.243595,-2.1531 -1.24646,-3.98482 -3.385806,-4.16218 -0.541774,-0.0449 -0.775322,-0.002 -1.207428,0.22224 -1.41992,0.7366 -1.343375,2.42785 0.203284,4.49152 0.90902,1.21288 1.855554,3.09789 2.120224,4.22239 0.65071,2.76465 -0.455809,4.14924 -3.239076,4.05304 -0.963935,-0.0333 -1.035535,-0.0185 -1.254719,0.25926 -0.483003,0.61212 -0.509671,0.77714 -0.06211,0.38433 0.374104,-0.32834 0.536693,-0.38889 1.044223,-0.38889 z m 33.493496,13.4131 c -0.164531,-0.0562 -0.619319,-0.29727 -1.010639,-0.5357 -1.586059,-0.96638 -3.667845,-1.55747 -6.228759,-1.76853 -1.662791,-0.13705 -2.402652,-0.10026 -6.967574,0.34642 -0.600376,0.0588 -0.63123,0.0473 -0.764567,-0.28244 -0.203153,-0.50248 -0.17533,-2.15389 0.04864,-2.88676 0.766179,-2.50712 2.905603,-4.57682 4.941253,-4.78022 0.389422,-0.0389 1.004197,-0.20923 1.366167,-0.3785 l 0.658127,-0.30776 -2.034211,-0.0736 c -1.118816,-0.0405 -2.118227,-0.11137 -2.220911,-0.15747 -0.108796,-0.0489 -0.349935,-0.61888 -0.577896,-1.36608 -0.512509,-1.67989 -1.124744,-3.24387 -2.469314,-6.30795 -0.606474,-1.38207 -1.347246,-3.13209 -1.646161,-3.88893 -0.588345,-1.48968 -1.223666,-3.56874 -1.121698,-3.67071 0.03477,-0.0348 0.430155,0.002 0.878626,0.0819 1.113117,0.19816 1.675659,0.0408 2.24913,-0.62918 0.529881,-0.61905 0.773673,-1.40859 1.254196,-4.06184 0.391598,-2.16223 0.642675,-2.96597 1.2021,-3.84809 0.414798,-0.65407 1.090564,-1.02787 1.86569,-1.03203 2.142418,-0.0115 3.141674,1.99352 2.277114,4.569 -0.165014,0.49157 -0.654132,1.63899 -1.086927,2.54981 -0.828638,1.74389 -1.262076,2.96125 -1.262076,3.54471 0,0.82468 0.508987,1.50429 1.464334,1.95522 0.529655,0.25 0.607996,0.25691 1.192757,0.10523 1.262392,-0.32746 2.236896,-0.0964 2.902243,0.68815 0.189336,0.22326 0.712362,1.17736 1.162283,2.12023 0.449921,0.94287 0.974389,1.94156 1.165482,2.2193 l 0.347445,0.505 2.03802,0.26478 c 4.446824,0.57775 7.026729,1.34731 8.958886,2.67235 0.781855,0.53618 1.734532,1.55557 2.126055,2.27493 0.338793,0.62247 0.3389,0.77536 0.0017,2.42226 -0.06743,0.32933 0.04164,0.18673 1.225912,-1.60272 1.333367,-2.01473 1.803507,-2.46299 2.700814,-2.5751 0.745825,-0.0932 1.668508,0.0695 2.329468,0.41067 1.04983,0.54193 1.92073,1.94451 2.18677,3.52178 0.17308,1.02615 0.0838,2.82989 -0.19046,3.84783 -0.49848,1.85022 -1.69773,3.51266 -2.976035,4.12548 -0.576907,0.27657 -0.642973,0.28092 -3.888933,0.25607 -5.425445,-0.0415 -7.25941,-0.36951 -9.174489,-1.64067 -0.639695,-0.42461 -0.649005,-0.43926 -0.649005,-1.02129 0,-1.25195 -0.642597,-1.90389 -0.890407,-0.90336 -0.148428,0.59928 0.08408,1.51383 0.445405,1.75194 0.146032,0.0962 0.521285,0.42508 0.833896,0.73077 0.499309,0.48826 0.568382,0.61678 0.568382,1.05748 0,0.69625 -0.275893,1.16046 -0.869997,1.46382 -0.551037,0.28138 -1.846055,0.40963 -2.360809,0.23381 z m 2.104967,-0.49517 c 0.655622,-0.31738 0.976967,-0.92338 0.763247,-1.43935 -0.07921,-0.19122 -0.366566,-0.53504 -0.638581,-0.76404 -0.272013,-0.22901 -0.610385,-0.51841 -0.751937,-0.64313 -0.356538,-0.31412 -0.575165,-1.40654 -0.4067,-2.03217 0.155896,-0.57895 0.387042,-0.78656 0.789983,-0.70953 0.233227,0.0446 0.29077,0.0169 0.240006,-0.11537 -0.03673,-0.0957 -0.06677,-0.25037 -0.06677,-0.34371 0,-0.34683 -0.940531,-0.084 -1.315312,0.36763 -0.312692,0.37677 -0.164979,1.27659 0.470629,2.86692 0.605295,1.51449 0.742573,2.27399 0.461773,2.55479 -0.371662,0.37166 -1.820624,0.0348 -3.219013,-0.74839 -1.053861,-0.59023 -2.210849,-1.04834 -3.398156,-1.34551 -1.354122,-0.33893 -5.183001,-0.30143 -7.035858,0.0689 -0.776523,0.1552 -1.386432,0.30762 -1.355351,0.3387 0.03108,0.0311 0.765568,-0.009 1.632196,-0.0893 2.192774,-0.20297 5.714606,-0.0894 7.058162,0.22751 1.45262,0.34268 2.210507,0.6285 3.671489,1.38462 1.101503,0.57008 1.381225,0.66607 1.940941,0.66607 0.414115,0 0.839286,-0.0897 1.159256,-0.24461 z m -0.63021,-0.6413 c 0.09,-0.23454 -0.0012,-0.54067 -0.609777,-2.04575 -0.369311,-0.91341 -0.55084,-1.55547 -0.593136,-2.09788 -0.05603,-0.71852 -0.03503,-0.81244 0.260103,-1.16318 0.305059,-0.36254 0.912865,-0.62575 1.448378,-0.6272 0.201812,-6e-4 0.291359,0.15601 0.505463,0.88375 0.458327,1.55785 1.631155,2.5719 3.538575,3.05953 1.147164,0.29327 1.864278,0.35512 5.557683,0.47936 3.628955,0.12206 3.825826,0.0896 4.806951,-0.79251 1.171142,-1.05295 1.739692,-2.75469 1.651792,-4.94397 -0.15932,-3.96813 -2.209604,-5.50158 -4.439962,-3.32073 -0.416753,0.4075 -0.546096,0.63973 -0.666392,1.19645 -0.281347,1.30205 -1.424142,2.32596 -2.452573,2.19743 -1.027279,-0.12838 -1.399243,-1.14039 -0.929582,-2.52912 l 0.242765,-0.71783 -0.297175,-0.38962 c -1.494379,-1.95923 -3.380708,-2.80696 -8.181615,-3.67689 -1.991491,-0.36086 -3.325117,-0.68429 -4.252868,-1.03141 -0.972442,-0.36384 -1.281916,-0.81814 -1.91317,-2.80852 -0.733252,-2.312 -0.671948,-2.26311 -2.848174,-2.27108 -1.872833,-0.007 -2.487186,-0.15428 -3.110297,-0.74632 -0.574852,-0.54618 -0.728047,-0.95636 -0.724489,-1.93981 0.0036,-1.00108 0.185997,-1.69263 1.183365,-4.48723 0.905632,-2.53756 1.055333,-3.11437 1.066186,-4.10813 0.009,-0.82723 -0.01046,-0.89459 -0.341376,-1.17977 -0.289529,-0.24952 -0.439464,-0.29248 -0.856602,-0.24546 -1.158897,0.13062 -1.468037,0.69905 -2.146342,3.94654 -0.523671,2.50715 -0.716189,3.20266 -1.101671,3.98001 -0.561185,1.13165 -1.382014,1.73506 -2.360249,1.73506 -0.298779,0 -0.543235,0.0191 -0.543235,0.0423 0,0.0233 0.234686,0.5483 0.521525,1.16668 0.286838,0.61838 1.019937,2.49742 1.629108,4.17564 1.553381,4.27946 2.618823,6.43733 3.676061,7.44525 0.338223,0.32244 0.346926,0.32385 0.926001,0.14957 0.321512,-0.0968 0.793127,-0.17593 1.048032,-0.17593 1.665693,0 2.221964,1.59058 0.934996,2.67349 -0.461973,0.38872 -1.056692,0.5558 -1.981451,0.55665 -0.589051,6e-4 -0.823867,0.0639 -1.256424,0.33882 -1.550321,0.98547 -2.984999,3.4828 -2.984999,5.19596 0,0.50009 0.03028,0.57589 0.209404,0.52411 0.680967,-0.19685 2.648002,-0.55602 3.644898,-0.66555 3.399864,-0.37353 5.83098,0.0375 8.769773,1.48258 1.83502,0.90235 1.777708,0.88111 2.410302,0.89316 0.322106,0.006 0.518324,-0.0494 0.560198,-0.1585 z m 14.34349,-1.10023 c 1.832502,-0.92859 3.087952,-3.44218 3.087952,-6.18249 0,-3.28861 -1.58236,-5.27866 -4.040375,-5.08135 -0.692324,0.0556 -0.823862,0.10914 -1.210103,0.49277 -0.238342,0.23674 -0.944893,1.19816 -1.570113,2.1365 -0.828736,1.24378 -1.209719,1.71644 -1.405999,1.74432 -0.237632,0.0337 -0.269234,-0.0138 -0.269234,-0.40502 0,-0.24378 0.06144,-0.77671 0.13654,-1.18427 0.136208,-0.73923 0.13553,-0.74261 -0.279172,-1.39089 -0.643182,-1.00546 -1.866261,-2.04968 -3.128931,-2.67138 -1.959996,-0.96505 -3.644585,-1.39513 -7.49779,-1.9142 -2.210757,-0.29781 -2.214149,-0.29874 -2.551492,-0.69309 -0.185786,-0.21718 -0.576352,-0.90642 -0.867924,-1.53164 -1.051958,-2.25572 -1.424102,-2.90535 -1.870805,-3.26577 -0.539454,-0.43524 -1.366754,-0.54985 -2.319409,-0.32131 -0.773223,0.18549 -1.313544,0.0621 -2.043246,-0.46645 -0.622858,-0.4512 -0.927589,-1.08969 -0.92107,-1.9299 0.0067,-0.85883 0.251376,-1.57935 1.300336,-3.82864 1.11923,-2.39998 1.30921,-2.97995 1.313093,-4.0086 0.0026,-0.70068 -0.05036,-0.92865 -0.324211,-1.3945 -0.437655,-0.74449 -1.160692,-1.10863 -2.054174,-1.03454 -1.541063,0.1278 -1.965937,1.0124 -2.943545,6.12856 -0.308857,1.61635 -0.612591,2.34013 -1.207639,2.87772 -0.568931,0.51399 -0.848688,0.5879 -1.956345,0.51681 l -0.873159,-0.056 0.296275,0.96822 c 0.409446,1.33807 0.916404,2.60157 2.558533,6.37671 1.293072,2.97268 2.617098,6.5088 2.618092,6.99223 5.98e-4,0.28677 0.34942,0.33939 2.273932,0.34302 2.03958,0.004 2.300374,0.0507 2.249893,0.40449 -0.05239,0.36712 -1.371014,0.99024 -2.235246,1.05626 -2.271509,0.17354 -4.687841,3.0003 -4.888476,5.71881 -0.05925,0.80281 0.08594,1.66088 0.263217,1.55558 0.0554,-0.0329 0.11369,-0.49061 0.129534,-1.01711 0.04823,-1.60273 0.734488,-3.12033 2.021134,-4.4696 0.937339,-0.98296 1.432355,-1.23325 2.515261,-1.27175 1.353471,-0.0481 2.342659,-0.70251 2.334067,-1.5441 -0.0097,-0.94737 -1.065566,-1.29497 -2.513352,-0.82739 l -0.630086,0.2035 -0.351195,-0.4129 c -1.052109,-1.23696 -2.10686,-3.18691 -2.941804,-5.4386 -0.268441,-0.72394 -0.846154,-2.28384 -1.283803,-3.46644 -0.43765,-1.1826 -1.032649,-2.62193 -1.32222,-3.1985 -0.289571,-0.57657 -0.526493,-1.10323 -0.526493,-1.17036 0,-0.0671 0.228849,-0.12235 0.508553,-0.12272 1.235663,-0.002 2.013389,-0.51488 2.59827,-1.71471 0.34781,-0.71351 0.584227,-1.60291 1.257825,-4.73195 0.360851,-1.67625 0.74108,-2.641 1.155715,-2.93239 0.749603,-0.5268 1.824198,-0.48249 2.369243,0.0977 0.257457,0.27405 0.272347,0.37085 0.225688,1.46717 -0.04544,1.06761 -0.118178,1.36857 -0.804281,3.32764 -1.324466,3.78183 -1.572864,4.79963 -1.398367,5.72978 0.100309,0.53469 0.562498,1.09163 1.158048,1.39546 0.568709,0.29013 2.167109,0.47819 2.737026,0.32202 0.620432,-0.17001 1.406436,-0.0418 1.75824,0.28683 0.417896,0.39036 0.571661,0.71988 0.945104,2.0254 0.353732,1.23662 0.741806,2.09521 1.088646,2.40858 0.405118,0.36602 2.334468,0.91492 4.947509,1.40756 1.414973,0.26677 3.0573,0.62414 3.649614,0.79416 1.619353,0.46481 3.051026,1.25327 3.995198,2.20027 1.11962,1.12296 1.18753,1.28125 0.86819,2.02357 -0.356945,0.82974 -0.342309,1.61372 0.03721,1.99324 0.484518,0.48452 1.318344,0.34581 1.942478,-0.32314 0.353773,-0.37917 0.749449,-1.27797 0.752671,-1.70974 0.002,-0.26615 0.156132,-0.50069 0.63084,-0.95987 0.842028,-0.81449 1.408301,-1.08016 2.303445,-1.08069 0.863292,-4.8e-4 1.340759,0.28606 1.873929,1.12471 0.64981,1.02213 0.87727,2.02568 0.87052,3.84073 -0.005,1.41681 -0.0448,1.73179 -0.32164,2.56211 -0.65192,1.95537 -1.969621,3.16912 -3.481171,3.20655 -1.509791,0.0374 -7.53309,-0.27892 -8.215247,-0.43141 -1.66803,-0.37287 -2.801065,-0.99606 -3.476448,-1.91212 l -0.363825,-0.49347 0.08133,0.53847 c 0.103268,0.68373 0.247773,0.84353 1.225967,1.35567 1.846581,0.96679 3.535759,1.1873 9.62678,1.25668 1.687774,0.0192 1.797113,0.006 2.382493,-0.29075 z m -29.372175,-0.12037 c -0.03976,-0.0398 -0.142969,-0.044 -0.229348,-0.009 -0.09546,0.0382 -0.0671,0.0666 0.07229,0.0723 0.12614,0.005 0.196815,-0.0231 0.157053,-0.0629 z m -39.247828,-2.80018 -0.661377,-0.73085 -1.086172,-3.85224 c -1.463169,-5.18932 -3.315332,-11.9344 -6.347915,-23.11743 -1.39206,-5.13339 -2.778805,-10.12485 -3.081656,-11.09213 -0.49416,-1.57832 -0.544119,-1.84219 -0.487093,-2.57268 0.0624,-0.79936 0.415098,-1.80242 0.780588,-2.21998 0.242674,-0.27725 0.77549,-0.26639 1.035669,0.0211 0.335612,0.37085 2.626501,8.44348 7.724346,27.21906 1.785078,6.57451 3.345391,12.14927 3.467361,12.38835 0.412375,0.80833 0.644728,1.83649 0.650962,2.88052 0.0081,1.35315 -0.166984,1.72172 -0.841253,1.77109 -0.466905,0.0342 -0.52592,-10e-4 -1.15346,-0.69481 z m 1.533776,0.0643 c 0.330363,-0.79067 0.120579,-2.5842 -0.428055,-3.65961 -0.133913,-0.26249 -1.502789,-5.12047 -3.041946,-10.7955 -4.24386,-15.64756 -7.439817,-27.11981 -7.916757,-28.4181 -0.227534,-0.61937 -0.538828,-0.83076 -0.78528,-0.53325 -0.349178,0.42152 -0.745334,1.63592 -0.731184,2.24142 0.0077,0.32997 0.214211,1.21844 0.458889,1.97438 0.244677,0.75594 0.593952,1.96674 0.776164,2.69068 0.518601,2.06043 6.92327,25.43982 8.391715,30.63283 0.725792,2.56669 1.423168,4.83651 1.549726,5.04405 0.295563,0.48467 1.128088,1.23807 1.368095,1.23807 0.101887,0 0.263272,-0.18674 0.358633,-0.41497 z m -0.905985,-0.75171 c -0.997601,-1.13085 -1.645767,-2.83648 -2.330468,-6.13255 -0.536787,-2.58402 -0.819408,-3.7135 -1.190117,-4.75623 -0.157979,-0.44436 -0.456392,-1.45409 -0.66314,-2.24385 -0.468721,-1.79047 -0.674997,-2.53859 -2.738426,-9.93173 -2.376755,-8.51578 -3.901228,-14.37487 -4.458326,-17.13493 -0.201436,-0.99799 -0.05333,-1.65161 0.374238,-1.65161 0.266022,0 0.336542,0.10601 0.636834,0.95728 0.185727,0.5265 0.659781,2.27335 1.053454,3.88189 0.393673,1.60854 0.816402,3.22394 0.939398,3.58978 0.122995,0.36584 1.865841,6.69601 3.872989,14.06703 5.042143,18.51669 5.343613,19.63303 5.343613,19.78729 0,0.29523 -0.363002,0.10839 -0.840049,-0.43237 z M 26.794663,262.3529 c -2.473249,-9.04513 -4.861908,-17.87264 -5.308132,-19.61667 -0.982524,-3.84015 -1.257966,-4.78011 -1.491127,-5.08855 -0.171615,-0.22703 -0.179315,-0.22221 -0.19621,0.12268 -0.02848,0.58139 -0.0048,0.70465 0.722944,3.76927 0.853805,3.59529 1.79815,7.13943 3.953555,14.83778 0.91211,3.25772 1.955334,7.027 2.318278,8.37616 0.362944,1.34916 0.84487,3.01841 1.070948,3.70944 0.226076,0.69103 0.635864,2.33336 0.910638,3.64961 0.536577,2.57037 0.936187,4.02424 1.385108,5.03933 0.292561,0.66154 1.004863,1.77261 1.085018,1.69246 0.02519,-0.0252 -1.97777,-7.44637 -4.45102,-16.49151 z m 10.365901,13.83017 c -0.278303,-0.73199 -3.294641,-11.48895 -5.26846,-18.78856 -2.938934,-10.8688 -3.931117,-14.39914 -4.188703,-14.90405 -0.309361,-0.60641 -0.563166,-1.65867 -0.964106,-3.99717 -0.383791,-2.23849 -0.683313,-3.34891 -1.095714,-4.06215 -0.602167,-1.04143 -1.434083,-1.2321 -2.418214,-0.55424 -1.169435,0.80551 -1.980825,0.86693 -1.979838,0.14989 8.38e-4,-0.59042 0.831124,-1.63272 1.771276,-2.22351 0.43415,-0.27282 1.675289,-0.76557 2.814229,-1.11729 0.707602,-0.21851 1.336235,-0.12244 1.566794,0.23946 0.28647,0.44965 9.522645,34.01576 9.522645,34.60719 0,0.58415 0.378485,1.97473 0.919979,3.38006 1.45044,3.76431 1.755737,4.98996 1.490313,5.98306 -0.180764,0.67633 -0.506108,1.05931 -1.153868,1.35827 -0.646447,0.29836 -0.882178,0.2819 -1.016333,-0.071 z m 1.195823,-0.40928 c 0.423686,-0.29467 0.71785,-0.9385 0.716001,-1.56712 -0.0024,-0.83211 -0.284305,-1.84737 -1.119809,-4.03359 -0.954195,-2.49679 -1.271425,-3.5209 -1.271425,-4.10452 0,-0.37726 -5.870149,-22.0902 -8.362194,-30.93071 -0.627837,-2.22724 -0.713086,-2.45165 -0.750051,-1.97438 -0.03022,0.39021 0.164882,1.27975 0.70862,3.23081 0.412678,1.48078 1.371914,4.98082 2.131635,7.77786 0.759722,2.79704 1.947662,7.1317 2.639865,9.63259 3.301935,11.92965 4.041401,14.71764 5.002269,18.85994 0.299424,1.29082 0.544408,2.46199 0.544408,2.6026 0,0.58245 -0.45675,0.1785 -1.131584,-1.00077 -0.611537,-1.06866 -1.166197,-2.87825 -1.925549,-6.28213 -0.374385,-1.67822 -0.865907,-3.6167 -1.09227,-4.30774 -0.226364,-0.69103 -1.751734,-6.15648 -3.38971,-12.14543 -1.637978,-5.98896 -3.483256,-12.66286 -4.100617,-14.83089 l -1.122475,-3.94188 -0.589062,-0.18637 c -0.451685,-0.14291 -0.598056,-0.24975 -0.627626,-0.4581 -0.09353,-0.659 1.908693,-0.86104 2.568934,-0.25923 0.258729,0.23583 0.304737,0.24944 0.240448,0.0711 -0.04372,-0.12128 -0.112388,-0.35155 -0.152584,-0.51171 -0.08473,-0.33759 -0.377179,-0.52419 -0.821531,-0.52419 -0.303579,0 -1.740202,0.49905 -2.791101,0.96957 -1.013181,0.45363 -2.479734,2.15241 -2.012839,2.33158 0.172318,0.0661 1.026523,-0.32861 1.690982,-0.78141 0.499944,-0.3407 1.337395,-0.32907 1.864094,0.0259 0.902727,0.60835 1.239847,1.52379 1.850672,5.02546 0.37914,2.17348 0.761224,3.67117 1.015187,3.97932 0.116662,0.14155 1.49379,5.05739 3.58589,12.80031 2.929945,10.84381 5.626363,20.47353 5.820948,20.78838 0.08112,0.13125 0.498893,0.0102 0.880474,-0.25523 z m -0.479495,-2.41858 c -0.548499,-2.48454 -2.363392,-9.42617 -4.054849,-15.50905 -0.984097,-3.53904 -2.093677,-7.5654 -2.465735,-8.94747 -0.975981,-3.62545 -2.593472,-9.52589 -3.427781,-12.50421 -0.623702,-2.22649 -0.710053,-2.65707 -0.642041,-3.20142 0.07345,-0.58789 0.05518,-0.65234 -0.279869,-0.9874 -0.311186,-0.31118 -0.445151,-0.35844 -1.015995,-0.35844 -1.065585,0 -1.452128,0.28962 -0.57396,0.43004 0.254176,0.0406 0.513045,0.10859 0.575265,0.15099 0.175979,0.11992 1.815329,5.92005 5.619095,19.88073 1.479348,5.42955 2.871596,10.41038 3.093883,11.0685 0.222286,0.65813 0.732078,2.65715 1.13287,4.44226 0.400792,1.78511 0.881351,3.69667 1.067907,4.24791 0.3563,1.05279 1.067953,2.56165 1.163255,2.46635 0.03072,-0.0307 -0.0557,-0.56118 -0.192045,-1.17879 z m -16.745759,-0.8277 c -1.438298,-0.51721 -2.846188,-2.11441 -3.785044,-4.294 -1.025272,-2.38021 -2.750406,-7.25076 -3.305033,-9.33106 -0.319174,-1.19717 -0.371405,-1.60242 -0.379414,-2.94385 -0.0081,-1.35668 0.02586,-1.6435 0.265569,-2.24322 0.324977,-0.81303 1.253747,-1.87726 2.038867,-2.33623 0.303849,-0.17763 1.090922,-0.7429 1.749049,-1.25617 0.658127,-0.51326 1.319919,-0.96469 1.470649,-1.00318 0.36232,-0.0925 0.650938,0.1803 1.240397,1.1725 0.805813,1.35639 1.399716,3.24947 2.378282,7.58085 0.208162,0.92138 0.5565,2.24062 0.774084,2.93166 0.217586,0.69103 0.432251,1.46943 0.477034,1.72978 0.04478,0.26035 0.402091,1.48199 0.794017,2.71475 1.096649,3.4494 1.269893,4.59574 0.871328,5.76546 -0.495384,1.45387 -2.717126,2.18612 -4.589785,1.51271 z m 2.626295,-0.23526 c 0.648056,-0.1745 1.216441,-0.60029 1.52237,-1.14044 0.212786,-0.37569 0.26913,-0.66287 0.269288,-1.37254 2.39e-4,-1.08825 -0.157603,-1.78389 -0.996326,-4.39093 -0.355809,-1.10597 -0.711562,-2.30701 -0.790564,-2.66898 -0.079,-0.36197 -0.273332,-1.06198 -0.431846,-1.55558 -0.158513,-0.49359 -0.634341,-2.3513 -1.057395,-4.12825 -0.810138,-3.40281 -1.260183,-4.87671 -1.790314,-5.86331 -0.176816,-0.32906 -0.295517,-0.49061 -0.26378,-0.35898 0.428546,1.77731 0.893289,3.49864 2.003026,7.41889 1.900081,6.7122 2.971957,11.04697 2.971957,12.01887 0,0.43492 -0.678801,1.17623 -1.426182,1.55751 -0.625958,0.31934 -1.680318,0.32261 -2.374861,0.007 -1.597034,-0.72489 -3.58125,-3.69308 -4.521115,-6.76315 -0.181329,-0.59232 -0.721876,-2.12695 -1.201215,-3.4103 -1.200235,-3.21343 -1.397046,-4.02411 -1.345991,-5.5443 0.04799,-1.42883 0.373657,-2.29181 1.118859,-2.96482 0.246951,-0.22303 0.976604,-0.90062 1.62145,-1.50575 1.535847,-1.44127 2.39154,-1.87303 2.858889,-1.44252 0.08931,0.0823 0.01291,-0.0523 -0.16976,-0.29915 -0.182673,-0.2468 -0.374926,-0.44872 -0.427228,-0.44872 -0.0523,0 -0.538136,0.33654 -1.07963,0.74787 -0.541494,0.41133 -1.394243,1.02103 -1.894999,1.3549 -1.076786,0.71792 -1.611028,1.29531 -2.03513,2.19951 -0.28936,0.61692 -0.310504,0.77718 -0.300673,2.27899 0.01177,1.79812 0.185238,2.61045 1.172713,5.49167 2.451966,7.15428 3.56839,9.29732 5.40383,10.37296 1.067898,0.62583 1.94089,0.73871 3.164627,0.40919 z m -0.567221,-0.60491 c 0.262082,-0.0728 0.724269,-0.38421 1.108909,-0.7472 l 0.659528,-0.62241 -0.311407,-1.49574 c -0.448464,-2.15406 -1.214334,-5.08311 -2.579803,-9.86637 -0.658428,-2.30649 -1.438133,-5.13124 -1.732679,-6.27722 -0.294545,-1.14598 -0.5634,-2.12868 -0.597454,-2.18378 -0.09441,-0.15276 -0.500509,-0.11974 -0.868641,0.0706 -0.430971,0.22286 -3.458672,3.05996 -3.740413,3.50494 -0.119605,0.1889 -0.306459,0.69084 -0.415231,1.11542 -0.36195,1.41283 -0.12949,2.55355 1.326225,6.50803 0.48628,1.32099 1.027407,2.8595 1.202503,3.41891 0.924573,2.95386 3.017878,5.97367 4.505718,6.49996 0.630072,0.22287 0.865668,0.23509 1.442745,0.0748 z m 71.286736,-2.65595 c 8.37e-4,-0.88899 1.609654,-12.70836 3.35114,-24.61993 1.103666,-7.54896 2.246597,-15.53523 2.696307,-18.84048 0.20492,-1.50615 0.31686,-1.72954 0.87049,-1.73714 0.4329,-0.006 0.72735,0.20724 1.10186,0.79778 0.66689,1.05158 0.67338,1.34185 0.12238,5.48053 -0.80257,6.02838 -3.942959,27.8446 -4.073543,28.29883 -0.227221,0.79036 -0.354664,1.74037 -0.537834,4.00923 -0.100952,1.25044 -0.242279,2.67621 -0.314062,3.16837 -0.372944,2.55705 -1.202682,3.71205 -2.666701,3.71205 -0.490984,0 -0.55027,-0.029 -0.550037,-0.26924 z m 1.513459,-0.32049 c 0.496366,-0.30266 1.070893,-1.47999 1.288831,-2.64108 0.09265,-0.49359 0.229129,-1.62438 0.303291,-2.51285 0.264877,-3.17328 0.379722,-4.14143 0.603263,-5.08552 0.390761,-1.65033 4.547403,-31.02152 4.547403,-32.13236 0,-0.64069 -0.68477,-1.93211 -1.10237,-2.07897 -0.38878,-0.13673 -0.69253,0.0684 -0.69253,0.46779 0,0.35131 -1.011709,7.51979 -2.58379,18.30747 -1.947346,13.36274 -3.518785,24.83845 -3.518829,25.69686 -1.4e-5,0.29056 0.663324,0.2783 1.154731,-0.0213 z m -0.303079,-0.63678 c -0.377446,-1.01938 -0.265217,-2.47823 0.578987,-7.52616 0.323075,-1.93183 0.623784,-3.91628 0.668241,-4.40987 0.130314,-1.44683 4.171869,-29.61077 4.434469,-30.90206 0.0883,-0.4341 0.30364,-0.4165 0.57756,0.0472 0.1986,0.3362 0.21379,0.5433 0.14263,1.94447 -0.16487,3.24651 -0.49573,6.02144 -1.52039,12.75158 -0.39539,2.59698 -0.850731,5.71856 -1.011868,6.93685 -0.161137,1.21829 -0.345627,2.51276 -0.409978,2.8766 -0.06435,0.36384 -0.417098,2.84232 -0.783885,5.50773 -1.070776,7.78125 -2.04393,13.04288 -2.412316,13.04288 -0.09007,0 -0.208621,-0.12115 -0.26345,-0.26923 z m 0.686478,-2.39319 c 0.476028,-2.30515 1.08191,-6.06799 1.632897,-10.14114 0.235922,-1.74404 0.586521,-4.22099 0.779111,-5.50434 0.192588,-1.28334 0.435853,-3.00644 0.540589,-3.8291 0.104736,-0.82266 0.506683,-3.56884 0.893222,-6.10263 0.7905,-5.18187 0.98749,-6.6052 1.25862,-9.09412 0.23172,-2.12715 0.35477,-5.5515 0.18703,-5.20519 -0.0638,0.13163 -0.4135,2.25857 -0.77722,4.72655 -1.295415,8.78995 -3.521173,24.49188 -3.655264,25.78662 -0.07498,0.72394 -0.405652,2.90473 -0.734838,4.8462 -0.591983,3.49142 -0.871225,6.34196 -0.621265,6.34196 0.06616,0 0.289859,-0.82117 0.497118,-1.82481 z m -49.589486,3.05356 c -0.145055,-0.10447 -0.908637,-2.82263 -5.454593,-19.41699 -1.775867,-6.48255 -3.497799,-12.7557 -3.826517,-13.94033 -0.396561,-1.42913 -0.616176,-2.47218 -0.652672,-3.09987 -0.06584,-1.13235 -0.348731,-1.83845 -0.90303,-2.25398 -0.536617,-0.40228 -0.829833,-0.47955 -1.785572,-0.47056 -0.881928,0.008 -1.770691,0.20661 -3.378544,0.75386 -1.304938,0.44415 -1.922425,0.43506 -1.976265,-0.0291 -0.04991,-0.43028 0.806211,-1.17028 2.064112,-1.78412 0.777452,-0.3794 1.275925,-0.52189 2.579114,-0.73729 1.750793,-0.28939 4.480859,-0.36043 5.027845,-0.13085 0.272417,0.11434 0.380164,0.4059 1.124095,3.04173 3.154266,11.17589 4.929601,17.68435 6.52571,23.92356 0.6255,2.44509 0.843871,3.50236 0.843871,4.08573 0,0.96919 0.261558,1.83902 1.243451,4.13521 1.054606,2.46623 1.269398,3.14013 1.269398,3.98268 0,0.94094 -0.235697,1.38958 -0.876027,1.6675 -0.57502,0.24957 -1.636277,0.40826 -1.824376,0.27279 z m 1.78459,-0.60193 c 0.247949,-0.14412 0.437004,-0.38997 0.551323,-0.71694 0.154564,-0.44208 0.152114,-0.58871 -0.02197,-1.31404 -0.107769,-0.44903 -0.605249,-1.77682 -1.105513,-2.95063 -0.500263,-1.17382 -1.015068,-2.49151 -1.14401,-2.92822 l -0.23444,-0.79401 0.06769,0.65813 c 0.03723,0.36197 0.463817,1.84275 0.947976,3.29063 0.484159,1.44788 0.916271,2.88213 0.960248,3.18721 0.09292,0.64462 -0.07604,1.0607 -0.430724,1.0607 -0.360235,0 -1.161347,-0.4453 -1.234183,-0.68603 -0.170035,-0.56197 -3.011098,-10.89924 -4.678703,-17.02357 -1.648772,-6.05516 -4.69861,-16.99847 -4.96891,-17.82926 -0.226641,-0.69659 -0.108421,0.81668 0.131061,1.67764 0.136929,0.49227 1.782309,6.49511 3.656402,13.33963 3.2531,11.8809 5.732433,20.86947 5.854809,21.22601 0.07747,0.22572 1.139904,0.0986 1.648942,-0.19725 z m -0.280782,-1.30521 c 0,-0.24149 -0.40308,-1.62838 -0.895735,-3.08196 -0.492653,-1.45359 -0.929311,-2.9118 -0.970351,-3.24046 -0.09386,-0.75168 -1.853774,-7.8122 -3.280731,-13.16181 -1.306538,-4.89817 -3.24214,-11.69115 -4.516523,-15.8507 l -0.933564,-3.04713 -0.382542,-0.0782 c -0.441259,-0.0902 -2.673628,0.1018 -2.819189,0.24253 -0.0537,0.0519 0.378979,0.13167 0.961496,0.17724 0.582518,0.0456 1.113177,0.1201 1.179242,0.16563 0.202161,0.1393 2.113939,6.88828 6.81956,24.07449 1.756917,6.41674 3.32861,12.15644 3.492652,12.75489 0.238754,0.87101 0.360963,1.127 0.612568,1.28315 0.530791,0.32942 0.733117,0.26384 0.733117,-0.23763 z m -2.39725,-11.856 c -2.186888,-8.47912 -7.257331,-26.83563 -7.471787,-27.05008 -0.03566,-0.0357 -0.643209,-0.0881 -1.350107,-0.11654 -1.379897,-0.0555 -4.323872,0.28996 -5.247184,0.61572 -1.120736,0.39542 -2.679188,1.45201 -2.679188,1.81643 0,0.22225 0.165411,0.18795 2.147416,-0.44528 2.538163,-0.81092 4.152526,-0.76672 5.05773,0.13849 0.249183,0.24918 0.452243,0.44593 0.451244,0.43722 -9.57e-4,-0.009 -0.07394,-0.25709 -0.16209,-0.55196 -0.183047,-0.61231 -0.260197,-0.64344 -1.943779,-0.78431 -1.065536,-0.0892 -1.312295,-0.18054 -1.209676,-0.44796 0.147643,-0.38475 3.874368,-0.75338 4.306595,-0.42598 0.516391,0.39115 5.231993,16.97 7.937677,27.90685 0.810533,3.27631 0.825971,3.32192 0.86072,2.5427 0.02925,-0.65588 -0.0917,-1.2862 -0.697571,-3.6353 z m -33.772088,13.04358 c -0.480765,-0.53124 -1.870387,-4.17305 -2.2946074,-6.01353 -0.1137713,-0.4936 -0.3614434,-1.38207 -0.5503825,-1.97438 -0.578415,-1.8133 -0.7661337,-2.96253 -0.7622774,-4.66672 0.00241,-1.06325 0.069161,-1.82067 0.2109251,-2.39319 0.4825675,-1.94887 1.7133712,-3.64019 3.4883482,-4.79353 0.526502,-0.34211 1.63036,-1.1662 2.453019,-1.83132 0.822659,-0.66512 1.579753,-1.2101 1.682432,-1.21107 0.279962,-0.003 0.923309,0.68088 1.009288,1.07235 0.21844,0.99455 -0.70842,2.216 -3.243234,4.27407 -0.980015,0.7957 -1.909618,1.56845 -2.065784,1.71724 -0.610636,0.58177 -1.212723,2.56222 -1.2111,3.98368 0.0011,1.00025 0.319479,2.83088 0.948961,5.45709 0.324281,1.3529 0.676989,3.05683 0.783796,3.78651 0.324963,2.22007 0.146281,3.251 -0.449384,2.5928 z m 0.214054,-1.96666 c -0.105284,-0.8108 -0.456829,-2.57805 -0.781209,-3.92721 -0.781023,-3.24842 -0.956242,-4.32459 -0.956242,-5.8731 0,-1.57889 0.141834,-2.30847 0.661917,-3.40483 0.377619,-0.79604 0.493498,-0.91789 2.125728,-2.23527 2.070058,-1.67076 2.823109,-2.38874 3.308994,-3.15491 0.458867,-0.72355 0.464418,-1.13152 0.02213,-1.62653 l -0.342839,-0.3837 -0.524692,0.40845 c -0.28858,0.22465 -1.036236,0.81851 -1.661457,1.3197 -0.625221,0.50118 -1.405999,1.06363 -1.735062,1.24988 -0.907593,0.5137 -2.210089,1.89247 -2.7250153,2.8846 -1.150918,2.2175 -1.2258352,5.13904 -0.213705,8.33383 0.192677,0.60819 0.4581365,1.56349 0.5899103,2.1229 0.503845,2.13894 2.242728,6.50495 2.3743,5.96143 0.02676,-0.11057 -0.03748,-0.86443 -0.142761,-1.67524 z M 9.8934418,258.98 c -0.3474727,-1.10573 -0.8536271,-3.8421 -0.8536271,-4.61487 0,-0.72348 0.4194916,-1.92753 0.9663203,-2.77358 0.956856,-1.48044 3.240604,-3.41712 5.466603,-4.63582 0.509374,-0.27887 0.96652,-0.50772 1.015879,-0.50855 0.04936,-8.4e-4 0.08974,0.098 0.08974,0.21952 0,0.12996 -1.029804,1.22699 -2.499266,2.66243 -1.589902,1.55308 -2.676931,2.71804 -2.987554,3.20172 -0.973328,1.51562 -1.2382505,2.77433 -0.922922,4.38502 0.243757,1.24511 0.252246,2.45302 0.01724,2.45302 -0.09362,0 -0.2252036,-0.175 -0.2924182,-0.38889 z m 0.063237,-1.43591 c -0.033195,-0.0823 -0.060355,-0.015 -0.060355,0.14957 0,0.16453 0.027159,0.23184 0.060355,0.14957 0.033195,-0.0823 0.033195,-0.21688 0,-0.29914 z m -0.1196595,-0.5983 c -0.033195,-0.0823 -0.060355,-0.015 -0.060355,0.14957 0,0.16453 0.027159,0.23184 0.060355,0.14958 0.033195,-0.0823 0.033195,-0.21689 0,-0.29915 z m 0.2665767,-3.30789 c 0.48377,-1.18918 1.11481,-1.97348 3.412763,-4.24163 1.601792,-1.58101 2.123345,-2.1564 1.745748,-1.92596 -3.482964,2.12558 -5.627605,4.504 -5.8300554,6.46555 -0.036989,0.35839 0.0077,1.14858 0.099319,1.75598 l 0.1665708,1.10437 0.071538,-1.25642 c 0.050411,-0.88537 0.1490846,-1.44705 0.3341166,-1.90189 z m 90.547374,12.61195 c -0.651621,-0.0926 -1.243935,-0.22751 -1.316252,-0.29983 -0.07232,-0.0723 -0.131487,-0.47485 -0.131487,-0.89451 0,-0.90031 0.235296,-1.30876 0.964999,-1.67517 0.51693,-0.25956 0.9492,-0.2744 5.19746,-0.1784 2.72129,0.0615 3.10964,-0.0491 4.24747,-1.20974 0.77229,-0.78776 1.07481,-1.00076 1.25934,-0.88672 0.16352,0.10106 0.1437,0.72621 -0.0455,1.43439 -0.48405,1.81208 -1.66841,2.91771 -3.78649,3.53477 -1.16558,0.33957 -4.57483,0.43305 -6.38957,0.17521 z m 5.72135,-0.36099 c 2.32076,-0.48722 3.97982,-1.99489 4.212,-3.82763 l 0.0758,-0.5983 -0.76258,0.74262 c -1.32152,1.28692 -1.34179,1.29159 -5.60878,1.29159 -3.19606,0 -3.69531,0.025 -4.01731,0.20152 -0.437968,0.24003 -0.590056,0.41503 -0.708806,0.81559 l -0.08869,0.29915 0.343275,-0.31541 c 0.928081,-0.85272 2.157871,-1.00097 4.929841,-0.59429 2.00949,0.29481 2.89185,0.30947 3.55028,0.059 0.84908,-0.32304 0.89745,-0.32879 0.89745,-0.10672 0,0.27384 -0.76209,0.96925 -1.43592,1.31029 -1.30107,0.6585 -3.08772,0.75095 -6.13162,0.3173 -2.145198,-0.30563 -2.124884,-0.30539 -2.124884,-0.0248 0,0.32725 -0.09309,0.3067 2.991494,0.66019 0.73904,0.0847 3.02516,-0.0509 3.87845,-0.23005 z m -0.2209,-0.54816 c 0.74852,-0.13791 1.84988,-0.60165 2.07602,-0.87413 0.11132,-0.13414 0.0373,-0.14309 -0.43648,-0.0528 -0.61957,0.11813 -1.4954,0.0588 -3.26288,-0.22104 -1.74685,-0.27657 -3.07652,-0.2532 -3.73519,0.0657 -0.29751,0.14402 -0.63006,0.36034 -0.73899,0.48072 -0.189558,0.20945 -0.163247,0.22242 0.6124,0.30181 0.44575,0.0456 1.32201,0.15546 1.94723,0.24406 1.43858,0.20388 2.63165,0.22266 3.53789,0.0557 z m -18.691677,0.49905 c -0.20671,-0.12604 -0.405193,-0.27667 -0.441073,-0.33472 -0.03588,-0.0581 0.03702,-0.88358 0.162007,-1.83451 0.124983,-0.95092 0.474005,-3.61359 0.775603,-5.91703 0.548536,-4.18942 1.847602,-13.32583 4.172983,-29.34884 0.987009,-6.80098 1.280663,-8.57561 1.449989,-8.76272 0.506153,-0.55929 1.421042,-0.42158 3.700866,0.55704 2.114707,0.90775 3.258932,1.80464 2.838592,2.22498 -0.0874,0.0874 -0.727429,0.0245 -2.113608,-0.20779 -1.321626,-0.22148 -2.028203,-0.29319 -2.107514,-0.21388 -0.06562,0.0656 -0.170665,0.49025 -0.233426,0.94362 -1.354115,9.78162 -4.954102,34.60337 -5.08137,35.03581 -0.09505,0.32297 -0.254586,1.56144 -0.354532,2.75217 -0.29489,3.51326 -0.574777,4.73774 -1.179792,5.16151 -0.348709,0.24425 -1.142514,0.21645 -1.588725,-0.0556 z m 1.188048,-0.1391 c 0.676851,-0.3084 0.958289,-1.3856 1.224007,-4.68489 0.104616,-1.29896 0.267185,-2.64512 0.361264,-2.99149 0.226657,-0.83447 5.224565,-35.40262 5.192152,-35.91165 -0.0048,-0.0755 -0.113004,0.15651 -0.240434,0.51562 -0.3532,0.99536 -0.667309,2.86197 -1.060627,6.30285 -0.196571,1.71967 -0.438721,3.52354 -0.53811,4.00859 -0.09939,0.48505 -0.775775,5.02812 -1.503077,10.0957 -1.804085,12.5702 -3.093461,21.24281 -3.295605,22.16691 -0.09134,0.41758 -0.387459,0.31833 -0.535542,-0.17949 -0.217565,-0.7314 -0.282581,-3.01046 -0.122568,-4.29647 0.08061,-0.64787 0.38021,-2.47027 0.665771,-4.04978 0.285562,-1.5795 0.578904,-3.43721 0.651873,-4.12825 0.334973,-3.17231 3.692769,-26.36607 4.508385,-31.14137 l 0.199266,-1.16668 0.729451,0.002 c 1.346206,0.003 1.489468,0.14047 0.959256,0.92041 l -0.308662,0.45404 1.056533,0.0804 c 0.581094,0.0442 1.450443,0.16538 1.931888,0.26924 1.280838,0.27629 1.357406,0.25043 0.787041,-0.26591 -0.305417,-0.27648 -1.075505,-0.70121 -2.034211,-1.12191 -2.231234,-0.97914 -3.049091,-1.15263 -3.426104,-0.7268 -0.184504,0.2084 -0.707456,3.6805 -3.861323,25.63704 -1.118792,7.78879 -2.539312,18.37088 -2.599832,19.36732 -0.02944,0.48473 -0.0027,0.53673 0.385301,0.74787 0.487451,0.26529 0.501304,0.26683 0.873907,0.0971 z m 0.974106,-8.00699 c 0.361535,-2.40216 1.308584,-8.86378 2.104553,-14.35914 0.79597,-5.49536 1.522273,-10.40255 1.614007,-10.90486 0.09173,-0.50232 0.329966,-2.31924 0.529402,-4.03762 0.513201,-4.42184 0.96773,-6.42827 1.684165,-7.43441 l 0.244202,-0.34295 -0.539643,-0.0809 c -0.932398,-0.13982 -0.734924,-0.79755 -1.798011,5.98861 -0.574298,3.66599 -3.536722,24.60631 -3.765941,26.6201 -0.0784,0.68876 -0.328415,2.25032 -0.555591,3.47012 -0.227177,1.21981 -0.492235,2.74249 -0.58902,3.38373 -0.181736,1.20407 -0.23605,3.87117 -0.08957,4.39827 0.09451,0.34008 0.149464,0.023 1.161447,-6.70093 z m -32.132083,3.0214 c -0.574288,-1.50191 -3.284954,-10.788 -5.073482,-17.38054 -0.633842,-2.33635 -1.796891,-6.60945 -2.584555,-9.49577 -1.115246,-4.08672 -1.401499,-5.28475 -1.293744,-5.41459 0.16019,-0.19302 0.743044,-0.22009 1.062099,-0.0493 0.617082,0.33025 2.31806,5.58916 4.432288,13.70328 0.600189,2.30344 1.24563,4.72655 1.434312,5.38468 0.188683,0.65812 0.452951,1.66526 0.587261,2.23808 0.134311,0.57283 0.616802,2.269 1.072201,3.76928 0.4554,1.50027 0.924974,3.18547 1.043499,3.74488 0.285441,1.34721 0.291368,2.92032 0.01296,3.44021 -0.254628,0.47548 -0.524977,0.49883 -0.692839,0.0598 z m 0.60499,-1.37184 c 0.0084,-1.07001 -0.375781,-2.76371 -1.405735,-6.19662 -0.523251,-1.74404 -0.98888,-3.38636 -1.034729,-3.64961 -0.04585,-0.26325 -0.238473,-1.01711 -0.428053,-1.67524 -0.18958,-0.65812 -0.888298,-3.26969 -1.552707,-5.80348 -1.665255,-6.35062 -2.599466,-9.45363 -3.696036,-12.27652 -0.286552,-0.73766 -0.451612,-1.00301 -0.692084,-1.11257 -0.173682,-0.0791 -0.36157,-0.0981 -0.417528,-0.0421 -0.05596,0.056 0.135733,0.96047 0.425981,2.01003 0.290247,1.04955 1.425151,5.21986 2.522011,9.26734 2.227205,8.21853 3.833294,13.86973 5.033129,17.7096 0.442133,1.41497 0.83289,2.7073 0.868347,2.87183 l 0.06447,0.29915 0.153769,-0.35898 c 0.08457,-0.19744 0.156197,-0.66669 0.159166,-1.04278 z m 43.947966,1.39572 c -0.79384,-0.21372 -1.30997,-0.47281 -1.74337,-0.87516 -0.680672,-0.6319 -0.687056,-0.6884 -0.367412,-3.25204 0.743222,-5.9609 1.701882,-12.87591 2.537392,-18.30291 0.24429,-1.58676 0.25365,-1.595 1.42463,-1.25458 1.67,0.48548 3.67565,1.80158 5.62985,3.6943 l 0.74787,0.72434 v 0.97327 c 0,2.20276 -0.36623,5.49953 -0.90291,8.12776 -0.81315,3.98222 -2.80649,8.95834 -3.90826,9.75645 -0.79745,0.57767 -2.1771,0.7426 -3.41779,0.40857 z m 3.00516,-0.57401 c 0.54486,-0.32026 0.6288,-0.4413 1.39736,-2.01504 2.08865,-4.2768 3.25476,-9.19155 3.4315,-14.46255 l 0.0704,-2.10021 -0.97516,-0.88481 c -1.40441,-1.27428 -2.68926,-2.20704 -3.78585,-2.74838 -0.98914,-0.48831 -2.03148,-0.82449 -2.15947,-0.6965 -0.15724,0.15723 -1.74511,11.11894 -2.56776,17.7262 -0.545556,4.3817 -0.55886,4.15721 0.2845,4.80048 0.72447,0.55258 1.57058,0.78783 2.70767,0.75284 0.86973,-0.0268 1.1011,-0.0807 1.59679,-0.37203 z m -3.02625,-0.10765 c -0.22679,-0.076 -0.61048,-0.34232 -0.85263,-0.59184 -0.8068,-0.83136 -0.80235,-0.76028 -0.30489,-4.86595 1.04177,-8.59798 2.40001,-17.00924 2.74647,-17.0082 0.0768,2.4e-4 0.76902,0.39864 1.53823,0.88534 0.76922,0.48671 1.64491,1.00795 1.94599,1.15832 0.30108,0.15036 0.78266,0.49879 1.07017,0.77427 1.06729,1.02265 1.50867,2.22766 1.50803,4.11712 -4.8e-4,1.42818 -0.2087,2.62862 -0.90393,5.21128 -0.9261,3.44033 -1.00136,3.7567 -1.12139,4.71392 -0.14922,1.19003 -0.47781,2.05744 -1.19222,3.14726 -1.26409,1.92832 -3.05404,2.92081 -4.43383,2.45848 z m 1.88247,-0.50655 c 1.10352,-0.51374 2.35344,-1.9714 2.99349,-3.491 0.14289,-0.33926 0.32009,-1.01234 0.39377,-1.49575 0.12664,-0.83083 0.36587,-1.82898 1.43753,-5.99769 0.81371,-3.16529 0.85451,-4.99392 0.14665,-6.57126 -0.35063,-0.78131 -1.26225,-1.71652 -2.07977,-2.13358 -0.28968,-0.14779 -1.0814,-0.61898 -1.75936,-1.0471 -0.67797,-0.42812 -1.25672,-0.75435 -1.28611,-0.72496 -0.0945,0.0945 -0.41395,1.75242 -0.89418,4.64103 -0.61719,3.71241 -0.75319,4.67019 -1.496,10.53584 -0.53483,4.2234 -0.60597,5.01059 -0.47575,5.26502 0.16917,0.3305 0.81798,0.97199 1.19064,1.17719 0.39821,0.21928 1.16047,0.15354 1.82909,-0.15774 z m -27.100473,0.35683 c -0.466477,-0.32673 -0.695599,-1.18565 -0.686335,-2.57288 0.0088,-1.31657 0.124823,-1.9015 0.593407,-2.99149 0.232275,-0.54029 0.337783,-1.21514 0.589304,-3.76927 0.168506,-1.71113 0.472837,-4.43039 0.676293,-6.0428 0.542716,-4.30112 1.979114,-14.01034 2.257083,-15.25658 0.144031,-0.64576 0.314037,-2.17885 0.424614,-3.82911 0.271648,-4.05415 0.539697,-5.36601 1.361059,-6.66117 0.190742,-0.30076 0.550315,-0.70198 0.799053,-0.8916 l 0.452248,-0.34475 2.22276,0.007 c 1.83782,0.006 2.440049,0.0539 3.477466,0.27724 1.762069,0.3793 3.136855,1.14303 2.947202,1.63726 -0.06783,0.17675 -0.370684,0.18801 -3.155574,0.11734 -1.6943,-0.043 -3.242087,-0.0313 -3.439525,0.026 -0.356657,0.10353 -0.360715,0.1146 -0.627326,1.71192 -0.598428,3.58529 -1.44199,9.2422 -3.023364,20.2746 -2.343356,16.34834 -2.466402,17.1303 -2.760552,17.54339 -0.300291,0.42172 -1.163328,0.94399 -1.559916,0.94399 -0.160559,0 -0.407113,-0.0807 -0.547897,-0.17929 z m 1.484932,-0.69965 0.550322,-0.51996 0.280549,-1.78349 c 0.154302,-0.98091 1.112696,-7.57201 2.129764,-14.64687 1.799956,-12.52074 2.572194,-17.71673 3.065403,-20.6255 0.132442,-0.78109 0.221126,-1.47919 0.197079,-1.55133 -0.06669,-0.20008 -0.654346,1.08659 -0.857243,1.87695 -0.174136,0.67832 -0.27817,1.73486 -0.54526,5.53754 -0.07375,1.04995 -0.226958,2.17061 -0.364726,2.66776 -0.130659,0.4715 -0.853513,5.12222 -1.606342,10.33494 -2.369258,16.40516 -2.606117,17.96998 -2.742349,18.11753 -0.07314,0.0792 -0.3559,0.17938 -0.628351,0.22258 -0.415923,0.066 -0.538439,0.0355 -0.763929,-0.19 -0.244018,-0.24401 -0.262126,-0.34637 -0.198137,-1.12003 0.03873,-0.46831 0.321579,-1.73995 0.628547,-2.82586 0.506793,-1.79279 0.561495,-2.11194 0.594777,-3.47012 0.05718,-2.3332 0.803277,-8.21642 2.617692,-20.64126 0.55742,-3.81714 1.126122,-7.77487 1.26378,-8.79497 0.137658,-1.0201 0.282702,-2.03751 0.32232,-2.26091 0.108803,-0.61353 -0.139938,-0.36712 -0.442529,0.43838 -0.404336,1.07634 -0.580009,2.22943 -0.775435,5.08982 -0.196088,2.87004 -0.329956,3.97998 -0.602507,4.99559 -0.202515,0.75462 -1.667938,10.88145 -2.198155,15.19038 -0.323954,2.63268 -0.486127,4.11171 -0.833153,7.59837 -0.06916,0.69488 -0.218825,1.3395 -0.421875,1.81706 -0.929025,2.18501 -0.657308,5.06336 0.477981,5.06336 0.191484,0 0.50221,-0.18968 0.851777,-0.51996 z m -0.23391,-0.77607 c 0.155173,-0.0985 0.893544,-4.94013 3.014109,-19.76404 0.597823,-4.1791 1.191891,-7.9753 1.320154,-8.43599 0.254078,-0.91259 0.407963,-2.27884 0.599753,-5.32484 0.140228,-2.22711 0.336436,-3.31606 0.7669,-4.25632 0.42444,-0.9271 0.866689,-1.45654 1.559095,-1.86647 l 0.606319,-0.35896 -1.017106,0.0738 c -0.559408,0.0406 -1.29082,0.10532 -1.625361,0.14386 l -0.608255,0.0701 -0.740826,5.22098 c -0.407454,2.87153 -1.116089,7.80561 -1.574745,10.96462 -1.223559,8.42732 -1.934902,14.21177 -1.979186,16.0942 -0.032,1.36022 -0.09717,1.83278 -0.412524,2.99149 -0.869639,3.19526 -0.976545,3.80477 -0.764336,4.35778 0.07666,0.19977 0.596838,0.25437 0.856009,0.0898 z M 91.485195,219.2845 c 0,-0.065 -0.368161,-0.30356 -0.818136,-0.53017 -1.892722,-0.95316 -6.688274,-1.33955 -7.600239,-0.61238 l -0.339575,0.27077 0.639617,-0.0995 c 0.351788,-0.0547 1.364992,-0.11466 2.251565,-0.13325 1.430109,-0.03 1.616521,-0.0111 1.652472,0.16721 0.03177,0.15759 -0.08376,0.21913 -0.535013,0.28495 -0.479704,0.07 -1.472984,0.45369 -1.472984,0.56903 0,0.0182 0.498082,0.0146 1.10685,-0.008 0.608768,-0.0225 1.699165,0.008 2.423104,0.0674 1.865536,0.15348 2.692339,0.16081 2.692339,0.0239 z m -39.47496,35.80008 -0.525799,-0.2029 -0.64613,-2.2137 c -0.355372,-1.21753 -1.665047,-5.92912 -2.910389,-10.4702 -1.245341,-4.54108 -2.478541,-9.00008 -2.740444,-9.90889 -0.380221,-1.31939 -0.462163,-1.77078 -0.406606,-2.23986 0.129201,-1.0909 -0.492749,-1.55341 -2.500877,-1.85977 -2.041698,-0.31147 -2.411732,-0.51928 -2.108747,-1.18426 0.154053,-0.33811 0.266868,-0.3765 1.41595,-0.48184 2.553097,-0.23404 4.235085,-0.0196 5.026241,0.64092 0.364545,0.30434 0.468917,0.64715 2.921415,9.59547 1.398851,5.10392 2.579762,9.5454 2.624248,9.86997 0.04449,0.32456 0.492693,1.82945 0.996013,3.3442 0.752171,2.26367 0.924575,2.92456 0.968171,3.71137 0.04703,0.84877 0.02352,0.99457 -0.207405,1.28634 -0.219531,0.27737 -0.348372,0.32804 -0.820144,0.32255 -0.307833,-0.004 -0.796307,-0.0978 -1.085497,-0.2094 z m 1.506805,-0.20305 c 0.611148,-0.42806 0.499726,-1.17155 -0.744174,-4.96572 -0.485469,-1.48078 -0.935777,-3.02569 -1.000683,-3.43312 -0.156614,-0.98308 -5.022287,-18.71828 -5.191233,-18.92185 -0.239333,-0.28838 -1.00054,-0.60551 -1.812513,-0.75512 -0.956977,-0.17633 -4.121537,0.037 -4.281413,0.28863 -0.23576,0.37106 0.04921,0.49658 1.685216,0.7423 1.36211,0.20459 2.110534,0.44745 2.50764,0.81374 l 0.287504,0.26519 -0.09067,-0.29915 c -0.194289,-0.64101 -0.301251,-0.84636 -0.475727,-0.91331 -0.09971,-0.0383 -0.181285,-0.1715 -0.181285,-0.29609 0,-0.268 0.338007,-0.2955 1.142378,-0.093 l 0.530396,0.13356 0.836459,2.55056 c 1.066599,3.25233 2.253646,7.37922 4.008119,13.93465 0.766203,2.86285 1.686346,6.24271 2.044762,7.5108 0.358416,1.26808 0.651666,2.41233 0.651666,2.54276 0,0.35595 -0.610881,0.3118 -1.073638,-0.0776 -0.751655,-0.63248 -1.135773,-1.70971 -1.98062,-5.55451 -0.310206,-1.41171 -0.738522,-3.05137 -0.951812,-3.64368 -0.21329,-0.59232 -0.741823,-2.39618 -1.174518,-4.00859 -1.793146,-6.68206 -2.605908,-9.67215 -2.813466,-10.35055 l -0.219661,-0.71795 -0.0807,0.49641 c -0.06416,0.39469 0.03092,0.88513 0.463955,2.39319 0.299559,1.04323 1.433511,5.1545 2.519894,9.13617 1.576019,5.77623 2.912332,10.55563 3.58307,12.81506 0.03118,0.10504 0.284547,0.25965 0.563031,0.34359 0.278485,0.0839 0.560182,0.16874 0.625995,0.18846 0.24863,0.0745 0.373012,0.0495 0.622027,-0.12489 z m -0.76096,-2.30329 c -0.224613,-0.7733 -0.894274,-3.20987 -1.488135,-5.41459 -2.858761,-10.61322 -3.634529,-13.33648 -4.850781,-17.02818 -0.690345,-2.09541 -0.816231,-2.38337 -1.086906,-2.48628 -0.168373,-0.064 -0.329817,-0.0927 -0.358766,-0.0638 -0.02895,0.029 0.139247,0.6462 0.373772,1.37165 0.574283,1.77644 1.298435,4.36673 2.463883,8.8133 1.17474,4.48202 1.471355,5.52599 1.917057,6.74724 0.188448,0.51636 0.61563,2.17104 0.949293,3.67707 0.333664,1.50603 0.74391,3.15189 0.911657,3.65747 0.333328,1.00463 0.86878,1.84383 1.282786,2.01048 0.145416,0.0585 0.271172,0.10984 0.27946,0.11401 0.0083,0.004 -0.168707,-0.62511 -0.39332,-1.39841 z m 13.657744,0.64087 c -0.103245,-0.15758 -0.2169,-0.46719 -0.252568,-0.68805 -0.159879,-0.98995 1.763491,-15.49216 3.195507,-24.09412 1.045692,-6.28136 1.290293,-7.4917 1.61372,-7.98505 0.437904,-0.66797 1.249536,-0.78132 1.249536,-0.17451 0,1.27551 -3.978365,28.88755 -4.481149,31.10164 -0.461518,2.03236 -0.847685,2.56863 -1.325046,1.84009 z m 0.769735,-0.96326 c 0.416756,-1.3493 0.591175,-2.46921 3.187835,-20.46844 0.704033,-4.88014 1.489646,-10.82526 1.489646,-11.27289 0,-0.74625 -0.80248,0.0951 -0.978621,1.02599 -1.314395,6.94669 -2.967821,17.96202 -3.980998,26.52192 -0.459648,3.88337 -0.486773,4.30799 -0.305621,4.78445 0.167098,0.43951 0.315572,0.29021 0.587759,-0.59103 z m 43.007291,0.44205 c -0.26389,-0.62878 -0.15886,-1.81579 0.42619,-4.8163 0.26306,-1.34916 0.51099,-2.88379 0.55096,-3.41029 0.04,-0.5265 0.12923,-1.28976 0.19835,-1.69614 0.24567,-1.44435 -0.3285,-2.75854 -1.66313,-3.80667 -0.37835,-0.29713 -1.5135,-1.03712 -2.52256,-1.64441 -2.68389,-1.61528 -3.70103,-2.65355 -3.91589,-3.99721 -0.15512,-0.97003 0.73082,-1.44689 2.00171,-1.07743 1.36608,0.39712 4.06036,2.32348 6.33222,4.52742 l 1.14749,1.11317 0.16678,1.0171 c 0.23952,1.46067 0.18505,4.15875 -0.11959,5.92315 -0.13635,0.78975 -0.6372,2.98401 -1.113,4.87612 -0.73733,2.93218 -0.89728,3.44021 -1.08314,3.44021 -0.13873,0 -0.28657,-0.16325 -0.40639,-0.44872 z m 2.18282,-7.4488 c 0.62524,-3.26822 0.4962,-6.67087 -0.28251,-7.44958 l -0.3479,-0.34791 0.29864,0.87734 c 0.25872,0.76009 0.30032,1.10124 0.31125,2.55257 0.0107,1.41494 -0.0153,1.67524 -0.16687,1.67524 -0.13856,0 -0.19598,-0.21829 -0.25182,-0.95728 -0.10047,-1.32961 -0.43598,-2.04739 -1.35639,-2.90185 -0.40756,-0.37836 -1.19515,-0.95171 -1.75019,-1.27411 -0.55504,-0.3224 -1.43423,-0.83394 -1.95376,-1.13676 -1.64739,-0.96024 -2.57616,-1.97765 -2.76925,-3.03353 -0.0761,-0.4162 -0.0614,-0.44872 0.20379,-0.44872 0.47193,0 1.9933,0.85258 4.16022,2.3314 1.12553,0.76812 2.10776,1.37613 2.18273,1.35113 0.18967,-0.0632 -1.99848,-1.87231 -3.37136,-2.78733 -1.75064,-1.16679 -2.82614,-1.50032 -3.4435,-1.0679 -0.683,0.47838 0.0486,1.9722 1.51059,3.08428 0.37207,0.28302 1.47613,0.99564 2.45348,1.58359 2.03459,1.22395 2.98383,2.02324 3.491,2.9395 0.32677,0.59034 0.35489,0.73437 0.34734,1.77911 -0.0127,1.75899 -0.24268,3.69334 -0.71131,5.98297 -0.45021,2.19968 -0.633,3.92396 -0.47725,4.50214 0.0756,0.28049 0.23325,-0.20872 0.85335,-2.64742 0.41837,-1.64531 0.89974,-3.71841 1.06972,-4.60688 z m -0.48699,-6.18589 c -0.32815,-1.4814 -0.67624,-2.02209 -1.47416,-2.28983 -0.21872,-0.0734 -0.91873,-0.49647 -1.55557,-0.94017 -2.47735,-1.72602 -4.25325,-2.78523 -4.40886,-2.62962 -0.14301,0.14301 0.61262,1.30483 1.16015,1.7838 0.33615,0.29405 1.43707,1.00622 2.44648,1.58259 1.00942,0.57637 2.09619,1.26338 2.41505,1.5267 0.65384,0.53995 1.4772,1.5764 1.4772,1.85953 0,0.10308 0.033,0.15444 0.0733,0.11413 0.0403,-0.0403 -0.0198,-0.49352 -0.13357,-1.00713 z m -42.234345,8.22818 c -0.102846,-0.16641 -0.113014,-0.0894 1.265657,-9.58084 0.587916,-4.04748 1.176052,-7.78983 1.306968,-8.31633 0.130915,-0.52651 0.292301,-1.73806 0.358636,-2.69234 0.26785,-3.85332 0.366105,-4.87941 0.536525,-5.60305 0.374695,-1.59103 1.245967,-2.81232 2.418068,-3.3895 0.505917,-0.24913 0.767886,-0.28499 2.305825,-0.31568 1.940262,-0.0387 2.72561,0.0587 2.916741,0.36168 0.187087,0.2966 -0.07729,0.45022 -1.68582,0.97963 -1.471353,0.48426 -2.381283,0.85506 -2.476547,1.0092 -0.110862,0.17938 -0.68418,3.78591 -1.629146,10.24835 -0.519663,3.55389 -1.02566,6.81162 -1.124435,7.2394 -0.09878,0.42778 -0.264308,1.98713 -0.367846,3.46521 -0.308391,4.40249 -0.717656,5.70547 -1.997101,6.35819 -0.587526,0.29974 -1.699413,0.44337 -1.827525,0.23608 z m 1.5862,-0.50397 c 0.353796,-0.17127 0.646418,-0.43978 0.880209,-0.8077 0.638082,-1.00414 0.840245,-2.07162 1.06226,-5.60905 0.07546,-1.20235 0.238113,-2.65622 0.361447,-3.23081 0.123333,-0.57459 0.631863,-3.87167 1.130067,-7.32684 0.871341,-6.04297 1.242398,-8.45161 1.505087,-9.76998 0.11608,-0.58257 0.153309,-0.62906 0.685175,-0.85565 0.309334,-0.13179 1.154741,-0.43975 1.87868,-0.68437 0.72394,-0.24462 1.396264,-0.48806 1.494053,-0.54099 0.340559,-0.18431 -0.499067,-0.2913 -2.21201,-0.28185 -1.552933,0.009 -1.719261,0.0317 -2.278334,0.31668 -0.74911,0.38187 -1.542628,1.22841 -1.916056,2.04408 -0.45315,0.98981 -0.632231,2.13492 -0.828518,5.29787 -0.124277,2.00258 -0.263128,3.29543 -0.428301,3.98795 -0.265393,1.11272 -2.625805,16.87655 -2.625805,17.53624 0,0.26824 0.661798,0.22952 1.292046,-0.0756 z m -0.484345,-0.47195 c -0.34236,-0.19781 -0.269597,-1.54902 0.208155,-3.86548 0.229284,-1.11173 0.449327,-2.37713 0.488985,-2.812 0.112698,-1.23583 2.047006,-14.97633 2.510726,-17.83512 0.45184,-2.78556 0.487802,-2.87488 1.30928,-3.25211 0.710858,-0.32642 0.937956,-0.29913 0.865319,0.10402 -0.73966,4.10528 -1.477046,8.77051 -2.302701,14.56854 -1.568078,11.01157 -1.817733,12.51419 -2.130201,12.82119 -0.331627,0.32582 -0.681711,0.42572 -0.949563,0.27096 z m 0.620551,-0.43816 c 0.320204,-0.25972 0.556514,-1.64023 1.927119,-11.2581 1.202531,-8.43844 2.0616,-13.92986 2.448877,-15.65393 0.0725,-0.32276 -0.216893,-0.2717 -0.716098,0.12635 -0.32544,0.2595 -0.357559,0.38268 -0.78567,3.01304 -0.245497,1.50837 -0.912613,6.13483 -1.482481,10.28103 -0.981326,7.13987 -1.165836,8.35885 -1.767379,11.67622 -0.23509,1.29648 -0.230293,2.02479 0.01334,2.02479 0.05727,0 0.2203,-0.0942 0.362292,-0.2094 z m -52.802054,-12.1953 c -0.294078,-0.29407 0.197117,-2.14133 0.892634,-3.35696 0.210936,-0.36868 0.334208,-0.63941 0.273939,-0.60163 -0.06027,0.0378 -0.481393,0.31848 -0.935831,0.62378 -0.561834,0.37744 -0.92562,0.54353 -1.136766,0.519 -0.293226,-0.0341 -0.309569,-0.0714 -0.293532,-0.67124 0.01448,-0.54153 0.09915,-0.75873 0.574389,-1.47342 1.604529,-2.41299 4.375423,-4.55853 8.055563,-6.23752 2.343441,-1.06916 6.918686,-2.37587 9.178888,-2.62155 1.693791,-0.1841 6.135835,-0.18346 7.302668,0.001 2.596675,0.41064 4.794096,1.42489 4.537244,2.09423 -0.115023,0.29974 -0.490312,0.34742 -2.354667,0.29915 l -1.703939,-0.0441 1.316254,0.37893 c 2.341987,0.67421 3.511593,1.17821 4.572842,1.97051 0.491299,0.3668 0.712761,0.65034 1.040895,1.3327 1.264353,2.62925 0.157426,2.81581 -2.661855,0.44864 -0.781594,-0.65625 -0.971124,-0.75376 -1.968209,-1.01262 -1.981066,-0.51433 -2.782165,-0.60359 -5.351244,-0.59629 -1.991857,0.006 -2.74171,0.0578 -3.988624,0.27745 -1.944639,0.34253 -4.0639,0.92232 -5.957752,1.62993 -1.959025,0.73195 -5.621256,2.48938 -6.446973,3.09376 -0.361969,0.26494 -1.331211,1.13406 -2.15387,1.93136 -0.822659,0.79731 -1.674877,1.59477 -1.893818,1.77214 -0.385806,0.31255 -0.734249,0.4067 -0.898236,0.24271 z m 1.203493,-0.98485 c 0.445927,-0.38811 1.187702,-1.09212 1.648391,-1.56448 0.460689,-0.47236 1.160697,-1.11625 1.555573,-1.43088 0.800467,-0.63779 4.127462,-2.30831 6.282122,-3.15432 5.289214,-2.07676 10.667261,-2.70253 15.136924,-1.76128 1.803959,0.37989 2.122166,0.51688 3.125366,1.3455 2.381642,1.96717 3.051745,2.01155 2.156163,0.14278 -0.485257,-1.01256 -1.154069,-1.64153 -2.378823,-2.23712 -0.865651,-0.42096 -3.092403,-1.16106 -4.966832,-1.65082 -0.63949,-0.16709 -0.98719,-0.31654 -0.98719,-0.42432 0,-0.20492 0.363586,-0.21026 2.518845,-0.037 0.885174,0.0712 1.895162,0.0938 2.244419,0.0504 0.547755,-0.0682 0.614472,-0.10376 0.485526,-0.25913 -0.214764,-0.25878 -1.619016,-0.94446 -2.397974,-1.17091 -2.577621,-0.74933 -7.888887,-0.71553 -11.346639,0.0722 -5.594244,1.27447 -9.994004,3.40507 -12.81099,6.20378 -1.405509,1.39638 -2.265457,2.57756 -2.35328,3.23233 -0.0443,0.3303 -0.01914,0.47711 0.08178,0.47711 0.08018,0 0.535236,-0.26923 1.011242,-0.5983 0.90094,-0.62282 1.388641,-0.75969 1.38566,-0.38889 -9.57e-4,0.11517 -0.217824,0.60593 -0.481999,1.09058 -0.393945,0.72272 -0.952231,2.29181 -0.952231,2.67629 0,0.21549 0.281587,0.05 1.043948,-0.6135 z m -0.206331,-0.92402 c 0,-0.10656 0.184147,-0.49695 0.409217,-0.86753 0.551082,-0.90736 1.266015,-2.4138 1.266015,-2.66764 0,-0.11314 -0.052,-0.23785 -0.115555,-0.27713 -0.134967,-0.0834 -0.974096,0.31861 -1.521779,0.72909 -0.750576,0.56253 -0.865429,0.21101 -0.218846,-0.66981 0.605492,-0.82485 1.92091,-2.02655 3.006291,-2.74641 0.519162,-0.34432 1.751632,-1.02165 2.738822,-1.50517 5.253984,-2.57337 11.445987,-3.89109 16.06769,-3.41936 1.738454,0.17744 2.060721,0.2457 2.060721,0.43645 0,0.20089 -0.07522,0.22092 -2.2137,0.58961 -1.918401,0.33074 -2.692338,0.52304 -2.692338,0.66894 0,0.13156 1.083133,0.34418 2.393189,0.46979 1.67979,0.16106 3.962688,0.87669 6.229,1.95264 1.02175,0.48508 1.548866,0.85948 1.548866,1.10013 0,0.32531 -0.235469,0.29133 -1.156717,-0.16688 -2.04295,-1.01614 -4.116002,-1.44892 -6.944083,-1.44967 -2.864448,-7.2e-4 -5.379465,0.40355 -9.04417,1.45391 -4.220849,1.20976 -7.744942,3.10161 -10.737926,5.76446 -0.492365,0.43806 -0.935593,0.79689 -0.984953,0.7974 -0.04936,4.8e-4 -0.08974,-0.0863 -0.08974,-0.19282 z m 3.470125,-2.90041 c 3.138025,-2.11386 6.504027,-3.48142 11.188161,-4.54557 3.759699,-0.85414 7.772251,-0.95361 10.465643,-0.25942 0.491087,0.12657 0.91125,0.21176 0.933695,0.18932 0.04841,-0.0484 -1.609032,-0.65488 -2.756776,-1.00871 -0.445795,-0.13744 -1.28042,-0.3081 -1.854722,-0.37926 -2.657333,-0.32925 -3.173734,-0.47422 -3.113789,-0.87415 0.04605,-0.30721 0.618993,-0.50185 2.368752,-0.80472 2.014355,-0.34866 2.099122,-0.37967 1.316255,-0.48161 -1.177258,-0.15329 -4.142373,-0.11372 -5.587952,0.0746 -2.074242,0.27018 -3.901916,0.70515 -6.258337,1.48944 -4.211445,1.40169 -7.099002,2.94953 -9.124035,4.89082 -0.444236,0.42586 -0.807701,0.8135 -0.807701,0.86142 0,0.0479 0.199849,-0.0148 0.444109,-0.13929 0.640561,-0.32657 1.207233,-0.30344 1.296679,0.0529 0.09059,0.36094 -0.306155,1.48343 -0.842642,2.38403 l -0.422036,0.70847 0.689306,-0.61565 c 0.379118,-0.33862 1.308543,-1.0328 2.06539,-1.54263 z m 78.611276,-7.26805 c -3.111963,-3.20922 -8.817025,-5.61923 -14.892605,-6.29114 -2.130623,-0.23563 -6.655491,-0.20316 -8.064992,0.0579 -3.231412,0.59844 -5.710268,2.01941 -7.13725,4.09132 -0.249204,0.36183 -0.52571,0.65788 -0.614457,0.65788 -0.08875,0 -0.268059,-0.175 -0.398471,-0.3889 -0.578069,-0.9481 -0.04958,-2.36119 1.418668,-3.79326 1.119005,-1.09144 1.891828,-1.56385 3.53271,-2.15949 0.685104,-0.2487 1.345856,-0.51041 1.468338,-0.58158 0.566954,-0.32945 -1.185029,-0.0819 -2.566488,0.36258 -0.721012,0.23201 -0.765419,0.23348 -0.987191,0.0328 -0.333021,-0.30138 -0.292541,-0.79806 0.09677,-1.18737 0.92332,-0.92332 4.199867,-2.02284 6.970239,-2.33902 1.449573,-0.16544 5.223424,-0.1657 6.700931,-4.7e-4 2.625678,0.29364 5.438647,0.91402 8.12778,1.79253 3.678485,1.20172 7.422758,3.9055 7.738398,5.58799 0.0917,0.48854 -0.14259,1.11936 -0.41471,1.11681 -0.10718,-9.6e-4 -0.46412,-0.18488 -0.79318,-0.4086 -0.32906,-0.22372 -0.615,-0.39018 -0.6354,-0.3699 -0.0204,0.0203 0.28893,0.65231 0.68742,1.40452 0.75882,1.43237 0.98077,2.2498 0.73536,2.70834 -0.20054,0.37472 -0.37568,0.32194 -0.97187,-0.29289 z m 0.67301,-0.69568 c -0.0389,-0.20728 -0.39536,-0.96068 -0.79217,-1.67424 -0.39682,-0.71356 -0.73314,-1.41176 -0.74738,-1.55155 -0.0412,-0.40422 0.37812,-0.36991 1.10759,0.0906 0.36017,0.22739 0.69671,0.38756 0.74787,0.35594 0.16838,-0.10407 0.0972,-0.64303 -0.1486,-1.1248 -0.46878,-0.91888 -2.28116,-2.41604 -4.305917,-3.55701 -2.1328,-1.20185 -6.169141,-2.37553 -10.239081,-2.97731 -2.002135,-0.29603 -6.557473,-0.29089 -8.247836,0.009 -3.108463,0.55204 -6.162463,1.83279 -6.162463,2.58432 0,0.34191 0.140554,0.36102 0.906259,0.1232 0.965936,-0.3 2.480134,-0.53271 2.854659,-0.43871 0.192641,0.0483 0.307504,0.16049 0.307504,0.30021 0,0.26121 -0.760524,0.6495 -2.215312,1.13105 -2.316367,0.76673 -4.720567,3.10908 -4.723815,4.60229 -5.98e-4,0.28403 0.0565,0.62409 0.126938,0.7557 0.118807,0.22199 0.153978,0.20015 0.486711,-0.30218 0.197257,-0.2978 0.776712,-0.93403 1.287676,-1.41383 1.549461,-1.45496 3.542125,-2.33552 6.352634,-2.80721 1.424051,-0.239 5.290411,-0.26584 7.48014,-0.0519 6.140978,0.59991 11.664099,2.78952 15.004883,5.94859 0.96642,0.91385 1.09155,0.91351 0.91971,-0.002 z m -1.62967,-1.11843 c -0.29857,-0.18045 -1.213964,-0.77959 -2.034211,-1.33142 -1.479007,-0.99502 -3.214882,-1.92833 -3.586539,-1.92833 -0.106308,0 -0.674547,-0.16342 -1.262753,-0.36317 -4.949217,-1.68066 -10.498776,-2.15229 -15.435987,-1.31184 -2.755429,0.46905 -3.628091,0.80826 -5.7718,2.24354 -0.678935,0.45457 -1.031633,0.62588 -1.115628,0.54188 -0.084,-0.084 0.262565,-0.46874 1.096221,-1.21699 1.50461,-1.35048 2.145831,-1.66995 5.319951,-2.65052 2.275982,-0.70312 3.42192,-1.15937 3.588378,-1.4287 0.05008,-0.081 -0.62454,-0.12194 -2.010785,-0.12194 -2.48034,0 -2.861169,-0.0534 -2.810302,-0.39369 0.130115,-0.87058 6.805635,-1.47261 10.973408,-0.98965 4.655292,0.53947 8.612617,1.8369 11.678348,3.82884 1.499389,0.97421 2.869509,2.34088 2.346789,2.34088 -0.0584,0 -0.46005,-0.16557 -0.89251,-0.36795 -0.845247,-0.39554 -1.3074,-0.42011 -1.373574,-0.073 -0.07062,0.37038 0.545724,1.44872 1.296094,2.26762 0.39961,0.4361 0.71724,0.89385 0.71724,1.03363 0,0.32337 -0.0688,0.31583 -0.72234,-0.0791 z m -0.39687,-0.87231 c -0.593879,-0.66053 -1.273978,-1.90874 -1.273978,-2.33817 0,-0.34579 0.300673,-0.64908 0.636759,-0.64231 0.143378,0.003 0.476069,0.0807 0.739329,0.17292 l 0.47863,0.16767 -0.46554,-0.38232 c -0.88679,-0.72827 -2.17242,-1.53904 -3.36356,-2.1212 -4.208495,-2.05687 -10.039418,-3.12353 -15.053946,-2.75386 -2.0414,0.15049 -3.495539,0.3654 -4.390719,0.64892 -0.507294,0.16066 -0.401432,0.17122 1.828562,0.18236 2.581515,0.0129 2.715742,0.0518 2.311097,0.66935 -0.283729,0.43302 -0.872962,0.69199 -3.133496,1.37716 -2.969886,0.90018 -4.541886,1.53619 -4.790267,1.93808 -0.0423,0.0685 0.168323,-0.0193 0.468063,-0.19492 0.634874,-0.37206 2.720656,-0.92321 4.653639,-1.22968 1.894046,-0.3003 6.842165,-0.29796 8.893288,0.004 1.818692,0.26792 4.053582,0.7774 5.743655,1.30935 0.723939,0.22786 1.544188,0.47717 1.822776,0.55402 0.278586,0.0769 0.865505,0.33017 1.304263,0.56293 0.812398,0.43099 3.550345,2.20916 3.868765,2.51259 0.38259,0.36457 0.23668,0.13461 -0.27732,-0.43709 z m -78.334682,60.93066 1.256425,-0.20814 -1.615403,-0.015 c -1.20883,-0.0112 -1.856335,-0.0775 -2.572679,-0.26333 -1.898054,-0.49232 -3.563745,-1.54266 -4.526632,-2.85438 -0.933878,-1.27219 -2.979081,-5.1804 -4.082634,-7.80155 -1.7485383,-4.15313 -3.1298344,-9.44325 -3.6587603,-14.01242 -0.1297485,-1.12084 -0.12314,-1.3445 0.058153,-1.96812 0.2971047,-1.02201 0.7943449,-1.94116 1.5927176,-2.94416 0.8579629,-1.07787 1.5928227,-1.75577 3.9162247,-3.61271 2.09726,-1.6762 3.990473,-3.5513 4.363394,-4.32165 0.316442,-0.65368 0.344907,-1.67595 0.06927,-2.48781 -0.102808,-0.30281 -0.566986,-1.34966 -1.031507,-2.32633 -1.348605,-2.83548 -1.568356,-3.78097 -1.24714,-5.36585 0.301302,-1.48663 0.929395,-3.19805 1.569818,-4.27743 0.844025,-1.42253 3.040966,-3.60771 4.771985,-4.74644 5.004005,-3.29181 12.172107,-5.39479 18.388417,-5.39479 3.98364,0 6.800356,0.73808 9.388393,2.4601 1.540381,1.02494 2.471517,2.30086 3.144064,4.30828 0.454654,1.35705 0.673104,2.72117 0.908991,5.67621 0.278699,3.49135 0.142792,2.86045 2.513242,11.66679 0.577822,2.14664 1.663667,5.70298 1.821046,5.96426 0.03344,0.0555 0.192824,-0.13295 0.354185,-0.41881 0.389546,-0.69011 0.947533,-1.26189 1.533376,-1.57129 0.730446,-0.38577 2.05207,-0.35121 2.99001,0.0782 1.007983,0.46147 1.905433,1.17615 2.512559,2.00087 l 0.522737,0.71009 0.122549,-0.62949 c 0.401173,-2.06068 0.530968,-2.79134 0.908941,-5.11672 0.229992,-1.41497 0.689974,-4.56501 1.022181,-7.00008 0.332207,-2.43507 0.789396,-5.77357 1.015976,-7.41889 0.404349,-2.93618 0.409568,-3.02688 0.282359,-4.90604 -0.159474,-2.35578 -0.07328,-5.68701 0.176638,-6.82677 0.430911,-1.96518 1.13543,-3.35972 2.292338,-4.53752 1.726131,-1.75731 4.676208,-3.13165 8.15483,-3.79907 1.270136,-0.2437 1.773389,-0.27192 4.828224,-0.27076 3.95585,0.001 5.533265,0.16886 8.495823,0.90134 7.138874,1.76508 11.501231,4.57516 13.394641,8.62837 1.09182,2.33723 1.17172,3.82962 0.36738,6.86169 -0.6376,2.40348 -0.85703,3.40432 -0.81329,3.70936 0.0532,0.37089 0.9114,-1.61146 1.26637,-2.92511 0.27636,-1.02275 0.30969,-1.37022 0.31622,-3.2971 0.009,-2.54129 -0.12151,-3.18837 -1.01065,-5.0257 -0.95235,-1.96791 -1.83094,-2.88807 -4.41573,-4.62464 C 96.224512,208.431 89.128163,206.8 81.553458,207.30603 c -2.83881,0.18964 -4.214642,0.40858 -5.708222,0.90837 -4.489427,1.50225 -7.268952,4.38953 -7.866702,8.17167 -0.09059,0.57321 -0.223331,1.23031 -0.294975,1.46022 -0.210874,0.67672 -0.151152,1.95668 0.177692,3.8083 0.207255,1.16698 0.292473,2.01158 0.260614,2.58293 -0.06526,1.17038 -2.932192,20.97616 -3.270972,22.59706 -0.09936,0.47537 -0.308621,0.40579 -0.636097,-0.21151 -0.352699,-0.66484 -1.058845,-1.3176 -1.792208,-1.65669 -0.461011,-0.21317 -0.772294,-0.25516 -1.869368,-0.25222 -1.540909,0.004 -2.138772,0.21085 -2.910816,1.00639 -0.259311,0.2672 -0.518161,0.48555 -0.575221,0.48522 -0.107666,-6e-4 -2.409203,-8.05435 -3.111613,-10.88841 -0.830941,-3.35265 -0.902686,-3.84133 -0.931094,-6.34195 -0.02284,-2.01094 -0.06467,-2.47347 -0.302676,-3.34732 -0.793065,-2.91176 -2.315662,-5.19246 -4.394931,-6.58316 -0.997596,-0.66723 -1.736281,-0.96458 -3.5687,-1.43651 -2.185144,-0.56279 -4.179407,-0.75943 -6.94025,-0.68434 -4.277793,0.11634 -8.100105,1.00597 -12.497747,2.9088 -1.75834,0.76082 -4.24974,2.10252 -5.487309,2.95509 -1.994219,1.37383 -3.591395,3.21653 -4.585145,5.28999 -0.754778,1.57485 -1.060631,2.87062 -1.061707,4.49801 -0.0011,1.61037 0.223266,2.50137 1.23434,4.90255 0.427847,1.01609 0.842667,2.16835 0.921822,2.56057 0.348285,1.72582 -0.278939,2.96982 -2.002671,3.97199 -0.812307,0.47227 -3.625818,2.78863 -4.769537,3.92676 -2.1716818,2.16106 -3.2823183,4.3315 -3.2823183,6.41439 0,1.42813 1.4993599,8.02203 2.5861262,11.3733 1.7782381,5.48355 3.4478261,8.49131 7.1143421,12.81648 0.522115,0.61591 1.269559,1.10724 2.060388,1.35439 0.70359,0.21989 2.426743,0.19899 3.914535,-0.0475 z m 1.946744,-0.33605 c -0.08101,-0.0328 -0.242553,-0.0348 -0.358979,-0.004 -0.116425,0.0303 -0.05014,0.0572 0.147298,0.0596 0.197438,0.002 0.292694,-0.0224 0.211681,-0.0552 z m 86.102668,-13.36054 c 2.74392,-2.27783 4.61739,-6.71783 6.16939,-14.62111 0.95823,-4.87962 1.07892,-5.83764 1.07782,-8.55565 -0.002,-5.15531 -0.77513,-6.36074 -6.34202,-9.88938 -3.18704,-2.02014 -4.3484,-2.93671 -5.27997,-4.16705 l -0.5463,-0.72152 0.0805,0.51954 c 0.1805,1.16488 0.81085,1.87906 2.39299,2.71127 1.09805,0.57757 4.06218,2.45403 5.4436,3.4461 1.95094,1.40107 3.17807,2.88035 3.71436,4.47756 0.32678,0.97323 0.32842,2.44584 0.006,5.67176 -0.73587,7.36997 -1.79815,11.88806 -3.75343,15.96394 -0.96318,2.00783 -2.69832,4.707 -3.48012,5.41369 -0.7297,0.65958 -0.36752,0.48499 0.51685,-0.24915 z"
       id="path13526" />
  </g>
</svg>
