<?xml version="1.0" encoding="UTF-8" standalone="no"?>
<!-- Created with Inkscape (http://www.inkscape.org/) -->

<svg
   width="63.227657mm"
   height="51.676346mm"
   viewBox="0 0 63.227657 51.676346"
   version="1.1"
   id="svg5"
   inkscape:version="1.2-alpha1 (b6a15bbbed, 2022-02-23)"
   sodipodi:docname="hamburger_simple.svg"
   xmlns:inkscape="http://www.inkscape.org/namespaces/inkscape"
   xmlns:sodipodi="http://sodipodi.sourceforge.net/DTD/sodipodi-0.dtd"
   xmlns="http://www.w3.org/2000/svg"
   xmlns:svg="http://www.w3.org/2000/svg">
  <sodipodi:namedview
     id="namedview7"
     pagecolor="#ffffff"
     bordercolor="#000000"
     borderopacity="0.25"
     inkscape:pageshadow="2"
     inkscape:pageopacity="0.0"
     inkscape:pagecheckerboard="0"
     inkscape:deskcolor="#d1d1d1"
     inkscape:document-units="mm"
     showgrid="false"
     inkscape:zoom="3.0752245"
     inkscape:cx="129.90922"
     inkscape:cy="98.529393"
     inkscape:window-width="1920"
     inkscape:window-height="1017"
     inkscape:window-x="-8"
     inkscape:window-y="-8"
     inkscape:window-maximized="1"
     inkscape:current-layer="layer1" />
  <defs
     id="defs2" />
  <g
     inkscape:label="Layer 1"
     inkscape:groupmode="layer"
     id="layer1"
     transform="translate(-0.69310254,-244.40429)">
    <path
       id="path10981"
       style="fill:none;fill-opacity:1;stroke:#000000;stroke-width:0.1;stroke-miterlimit:4;stroke-dasharray:none;stroke-opacity:1"
       d="m 8.4771464,263.15989 c 16.1880646,-0.17159 31.2873116,-0.0503 47.4762736,0.0285 0.643053,0.0318 1.300953,-0.0146 1.935416,0.10937 v -4.6e-4 c 0.746016,2.2346 -3.120022,5.79802 -4.551151,2.53426 -1.706591,-2.51298 -4.866521,-1.39103 -6.250525,0.78873 -2.327145,2.24415 -3.546354,-3.50323 -6.379282,-2.20646 -2.133593,0.92998 -4.048677,4.76131 -5.977289,1.21413 -2.252163,-2.9802 -5.195424,-0.0613 -6.984622,1.68993 -2.105565,-0.65874 -3.612026,-4.43461 -6.291655,-2.54424 -1.497469,1.35273 -3.402258,3.98165 -4.946387,1.08004 -1.704198,-2.68269 -4.52221,-1.33888 -6.080405,0.86597 -1.0418794,0.64929 -2.9783286,-0.43993 -3.500074,-1.42649 -0.5217453,-0.98656 1.0164912,-1.97799 0.8045955,-2.05801 -0.8408426,-0.69717 -2.7275731,3.36612 -2.7275731,3.0411 v -2e-5 c -4.03835627,0.30542 -0.4501941,5.07969 2.2613919,3.94149 16.7128027,0.30156 33.4316547,0.0992 50.1453007,-0.0592 2.841416,1.40971 5.594862,-4.308 1.857894,-3.79683 -1.499903,1.91856 -4.506505,4.21373 -6.522547,1.55304 -1.6678,-3.12609 -3.745095,-0.71253 -5.414848,0.90741 -2.726826,1.62565 -4.089944,-2.29104 -6.248545,-2.60631 -1.624468,1.54574 -4.04755,4.34859 -6.317006,2.09743 -1.302739,-1.91922 -3.358544,-2.93497 -4.7087,-0.41521 -1.985125,2.60283 -4.949364,0.53055 -6.408693,-1.44115 -2.296454,-0.83156 -3.492067,3.95846 -6.310162,2.52313 -1.834295,-1.332 -3.854671,-4.43722 -5.623431,-1.1346 m -5.7098611,-1.07987 c 1.2164967,0.49283 2.8021153,2.52391 5.7098611,1.07987"
       sodipodi:nodetypes="ccssccccccccscssccccccccccccc" />
    <path
       id="path10959"
       style="fill:none;fill-opacity:1;stroke:#000000;stroke-width:0.1;stroke-miterlimit:4;stroke-dasharray:none;stroke-opacity:1"
       d="m 17.019651,256.84155 c -1.098115,1.42353 -3.474718,3.01686 -3.38849,4.16579 m 3.38849,-4.16579 v -5e-5 c 1.473028,-1.4502 2.911087,-2.94136 4.446971,-4.32556 3.023509,2.82961 5.9541,5.76984 8.773824,8.80257 -5.699039,0.29023 -11.50021,0.17591 -17.337448,0.10192 -0.986721,-0.0427 -1.224283,-1.51644 -1.907145,-1.52034 -0.682862,-0.004 -3.3812006,-0.0651 -4.2164402,-0.25519 -0.5361178,-2.18728 -0.6523212,-5.03415 2.23916,-4.2438 2.3490542,-0.0502 4.6987992,-0.045 7.0482242,-0.0631 l -2.145808,2.1519 v -10e-6 c -0.787339,0.67021 -1.438653,1.67456 -2.305395,2.14973 m 23.162003,1.14652 c 0.522148,-0.78391 2.615177,-2.52106 3.71329,-3.94459 v -5e-5 c 1.47303,-1.4502 2.911091,-2.94136 4.446976,-4.32556 3.023507,2.82961 5.954097,5.76984 8.773818,8.80257 -5.699039,0.29023 -11.009819,0.18482 -16.743924,0.10731 -0.269598,-0.0173 -1.010076,-0.48035 -1.34947,-0.86094 -0.303018,-0.33983 -0.631958,-0.69291 -0.852074,-0.70984 -0.466648,-0.0359 -1.94975,-0.15755 -2.22409,-0.65727 -1.204088,-1.20556 -2.469014,-2.65448 -3.673103,-3.86004 h 10.669014 c -0.71483,0.71571 -1.429661,1.43141 -2.144491,2.14712 -0.78696,0.67005 -1.164066,1.51627 -2.03033,1.99503 m 23.27686,-4.03784 c 2.196336,-0.50103 2.17323,5.25581 -0.394422,4.14221 -1.213686,-0.0762 -2.5876,0.21679 -3.726468,-0.0557 -1.39297,-1.39693 -2.785945,-2.79386 -4.178924,-4.19079 2.766644,0.0179 5.535064,-0.0127 8.299814,0.10427 z"
       sodipodi:nodetypes="cccscccsccccsccsscccsscccccscccss" />
    <path
       style="fill:none;fill-opacity:1;stroke:#000000;stroke-width:0.1;stroke-miterlimit:4;stroke-dasharray:none;stroke-opacity:1"
       d="m 58.62509,245.30138 c 2.745766,1.43282 5.36554,5.21364 3.250393,8.17173 -0.609251,1.2101 -2.847155,1.07405 -2.311465,2.74019 0.162495,1.98771 0.008,4.10478 -1.547216,5.3266 1.703979,1.31552 1.744047,3.48798 3.951267,4.31057 2.240738,2.17142 -1.262941,4.48798 -1.221067,6.06027 3.00007,2.70243 1.911509,7.27861 0.212983,10.38746 -3.543709,6.1606 -10.490851,9.23036 -17.057749,11.04979 -5.589734,1.57697 -11.48172,1.64434 -17.231835,1.24053 -8.097034,-1.29019 -16.772085,-3.84235 -22.086025,-10.52243 -2.1157448,-2.84368 -3.5807098,-6.74927 -2.3424687,-10.23156 0.9008293,-1.40545 2.5817869,-2.59791 0.431648,-3.7566 -2.307071,-2.43094 0.1809603,-4.93231 2.0646261,-6.1546 0.145865,-1.78647 2.9155484,-2.54498 0.391356,-3.80996 -0.8310085,-2.4054 0.6585603,-5.49493 -2.4879857,-6.49943 -2.25886562,-2.6945 0.1384555,-6.50542 2.6549591,-8.05145 0.9826932,-0.79005 2.1616426,-0.84781 3.3635087,-0.76433 16.3216025,-0.004 32.6432045,-0.008 48.9648065,-0.0115 0.33335,0.17148 0.667318,0.34391 1.000264,0.51477 z"
       id="path10953" />
    <path
       style="fill:none;fill-opacity:1;stroke:#000000;stroke-width:0.103305;stroke-miterlimit:4;stroke-dasharray:none;stroke-opacity:1"
       d="m 59.632816,245.00396 c 2.842473,1.47708 5.554517,5.37471 3.364874,8.42417 -0.63071,1.24748 -2.947433,1.10722 -2.392876,2.82483 0.168218,2.04911 0.0083,4.23157 -1.601709,5.49114 1.763993,1.35616 1.805473,3.59573 4.09043,4.44373 2.319658,2.23849 -1.30742,4.62661 -1.264072,6.24747 3.105733,2.7859 1.978833,7.50345 0.220484,10.70833 -3.66852,6.3509 -10.860341,9.51549 -17.658528,11.39112 -5.786606,1.62567 -11.88611,1.69512 -17.838746,1.27886 -8.382214,-1.33006 -17.3628026,-3.96106 -22.8639012,-10.84748 -2.1902622,-2.93153 -3.70682373,-6.95775 -2.4249715,-10.54763 0.9325576,-1.44885 2.6727183,-2.67814 0.4468508,-3.87263 -2.38832679,-2.50603 0.1873346,-5.08467 2.1373428,-6.34472 0.1510023,-1.84165 3.0182355,-2.62359 0.4051396,-3.92765 -0.8602764,-2.47969 0.6817558,-5.66466 -2.5756126,-6.70019 -2.33842395,-2.77773 0.1433314,-6.70638 2.7484675,-8.30017 1.0173038,-0.81444 2.2377756,-0.87399 3.4819729,-0.78792 16.8964537,-0.004 33.7929087,-0.008 50.6893617,-0.0119 0.34509,0.17675 0.690822,0.35451 1.035493,0.53065 z"
       id="path10953-1" />
  </g>
</svg>
