<?xml version="1.0" encoding="UTF-8" standalone="no"?>
<!-- Created with Inkscape (http://www.inkscape.org/) -->

<svg
   width="61.076752mm"
   height="50.127689mm"
   viewBox="0 0 61.076752 50.127689"
   version="1.1"
   id="svg5"
   inkscape:version="1.2-alpha1 (b6a15bbbed, 2022-02-23)"
   sodipodi:docname="hamburger3.svg"
   xmlns:inkscape="http://www.inkscape.org/namespaces/inkscape"
   xmlns:sodipodi="http://sodipodi.sourceforge.net/DTD/sodipodi-0.dtd"
   xmlns="http://www.w3.org/2000/svg"
   xmlns:svg="http://www.w3.org/2000/svg">
  <sodipodi:namedview
     id="namedview7"
     pagecolor="#ffffff"
     bordercolor="#000000"
     borderopacity="0.25"
     inkscape:pageshadow="2"
     inkscape:pageopacity="0.0"
     inkscape:pagecheckerboard="0"
     inkscape:deskcolor="#d1d1d1"
     inkscape:document-units="mm"
     showgrid="false"
     inkscape:zoom="1.5376122"
     inkscape:cx="178.52355"
     inkscape:cy="74.14093"
     inkscape:window-width="1920"
     inkscape:window-height="1017"
     inkscape:window-x="-8"
     inkscape:window-y="-8"
     inkscape:window-maximized="1"
     inkscape:current-layer="layer1" />
  <defs
     id="defs2" />
  <g
     inkscape:label="Layer 1"
     inkscape:groupmode="layer"
     id="layer1"
     transform="translate(-1.6905045,-244.71977)">
    <path
       style="fill:none;fill-opacity:1;stroke:#000000;stroke-width:0.1;stroke-miterlimit:4;stroke-dasharray:none;stroke-opacity:1"
       d="m 29.85291,285.95273 c -2.730682,1.72173 1.825021,4.97588 2.30179,1.55768 0.07069,-1.12786 -1.261975,-2.14312 -2.30179,-1.55768 z"
       id="path11015" />
    <path
       style="fill:none;fill-opacity:1;stroke:#000000;stroke-width:0.1;stroke-miterlimit:4;stroke-dasharray:none;stroke-opacity:1"
       d="m 47.110704,284.25831 c -3.290164,1.17599 0.883211,5.28668 1.855794,1.98115 0.27449,-1.04185 -0.78184,-2.22809 -1.855794,-1.98115 z"
       id="path11011" />
    <path
       style="fill:none;fill-opacity:1;stroke:#000000;stroke-width:0.1;stroke-miterlimit:4;stroke-dasharray:none;stroke-opacity:1"
       d="m 37.908742,281.19099 c -3.29016,1.176 0.883214,5.28667 1.855798,1.98115 0.274491,-1.04185 -0.781841,-2.22811 -1.855798,-1.98115 z"
       id="path11007" />
    <path
       style="fill:none;fill-opacity:1;stroke:#000000;stroke-width:0.1;stroke-miterlimit:4;stroke-dasharray:none;stroke-opacity:1"
       d="m 14.660907,281.31669 c -3.168385,1.74945 2.117707,5.08054 2.135146,1.33685 -0.141135,-0.97705 -1.154306,-1.85939 -2.135146,-1.33685 z"
       id="path11003" />
    <path
       style="fill:none;fill-opacity:1;stroke:#000000;stroke-width:0.1;stroke-miterlimit:4;stroke-dasharray:none;stroke-opacity:1"
       d="m 23.718269,276.75077 c -2.73068,1.72173 1.825023,4.97588 2.301794,1.55768 0.07069,-1.12786 -1.261979,-2.14312 -2.301794,-1.55768 z"
       id="path10999" />
    <path
       style="fill:none;fill-opacity:1;stroke:#000000;stroke-width:0.1;stroke-miterlimit:4;stroke-dasharray:none;stroke-opacity:1"
       d="m 54.536061,275.18205 c -3.612517,2.56952 3.699081,4.74048 1.787746,0.53104 -0.361009,-0.58621 -1.156478,-0.90034 -1.787746,-0.53104 z"
       id="path10995" />
    <path
       style="fill:none;fill-opacity:1;stroke:#000000;stroke-width:0.1;stroke-miterlimit:4;stroke-dasharray:none;stroke-opacity:1"
       d="m 7.2355455,275.05635 c -3.1650506,1.01821 0.7137836,5.37949 1.8388635,2.02726 0.3313867,-1.05316 -0.7524965,-2.27492 -1.8388635,-2.02726 z"
       id="path10991" />
    <path
       style="fill:none;fill-opacity:1;stroke:#000000;stroke-width:0.1;stroke-miterlimit:4;stroke-dasharray:none;stroke-opacity:1"
       d="m 57.480933,272.3817 c 3.218343,-0.23114 4.381572,3.53492 3.392038,6.07232 -1.569545,6.47706 -7.858525,10.25185 -13.714171,12.36403 -6.85617,2.44549 -14.343421,3.09566 -21.534682,2.07149 -7.577481,-1.20046 -15.74525,-3.88728 -20.3531725,-10.43651 -1.6894006,-2.39729 -2.6150579,-5.71026 -1.5007991,-8.51168 1.6720069,-2.39828 4.9538108,-1.32622 7.4012246,-1.60289 15.435997,-0.0394 30.874812,-0.1047 46.309562,0.0432 z"
       id="path10989" />
    <path
       id="path10981"
       style="fill:none;fill-opacity:1;stroke:#000000;stroke-width:0.1;stroke-miterlimit:4;stroke-dasharray:none;stroke-opacity:1"
       d="m 8.4771464,263.15989 c 16.1880646,-0.17159 31.2873116,-0.0503 47.4762736,0.0285 0.643053,0.0318 1.300953,-0.0146 1.935416,0.10937 v -4.6e-4 c 0.746016,2.2346 -3.120022,5.79802 -4.551151,2.53426 -1.706591,-2.51298 -4.866521,-1.39103 -6.250525,0.78873 -2.327145,2.24415 -3.546354,-3.50323 -6.379282,-2.20646 -2.133593,0.92998 -4.048677,4.76131 -5.977289,1.21413 -2.252163,-2.9802 -5.195424,-0.0613 -6.984622,1.68993 -2.105565,-0.65874 -3.612026,-4.43461 -6.291655,-2.54424 -1.497469,1.35273 -3.402258,3.98165 -4.946387,1.08004 -1.704198,-2.68269 -4.52221,-1.33888 -6.080405,0.86597 -1.0418794,0.64929 -2.9783286,-0.43993 -3.500074,-1.42649 -0.5217453,-0.98656 1.0164912,-1.97799 0.8045955,-2.05801 -0.8408426,-0.69717 -2.7275731,3.36612 -2.7275731,3.0411 v -2e-5 c -4.03835627,0.30542 -0.4501941,5.07969 2.2613919,3.94149 16.7128027,0.30156 33.4316547,0.0992 50.1453007,-0.0592 2.841416,1.40971 5.594862,-4.308 1.857894,-3.79683 -1.499903,1.91856 -4.506505,4.21373 -6.522547,1.55304 -1.6678,-3.12609 -3.745095,-0.71253 -5.414848,0.90741 -2.726826,1.62565 -4.089944,-2.29104 -6.248545,-2.60631 -1.624468,1.54574 -4.04755,4.34859 -6.317006,2.09743 -1.302739,-1.91922 -3.358544,-2.93497 -4.7087,-0.41521 -1.985125,2.60283 -4.949364,0.53055 -6.408693,-1.44115 -2.296454,-0.83156 -3.492067,3.95846 -6.310162,2.52313 -1.834295,-1.332 -3.854671,-4.43722 -5.623431,-1.1346 m -5.7098611,-1.07987 c 1.2164967,0.49283 2.8021153,2.52391 5.7098611,1.07987"
       sodipodi:nodetypes="ccssccccccccscssccccccccccccc" />
    <path
       id="path10959"
       style="fill:none;fill-opacity:1;stroke:#000000;stroke-width:0.1;stroke-miterlimit:4;stroke-dasharray:none;stroke-opacity:1"
       d="m 17.019651,256.84155 c -1.098115,1.42353 -3.474718,3.01686 -3.38849,4.16579 m 3.38849,-4.16579 v -5e-5 c 1.473028,-1.4502 2.911087,-2.94136 4.446971,-4.32556 3.023509,2.82961 5.9541,5.76984 8.773824,8.80257 -5.699039,0.29023 -11.50021,0.17591 -17.337448,0.10192 -0.986721,-0.0427 -1.568431,-1.77455 -2.251293,-1.77845 -0.6828622,-0.004 -3.3812009,-0.0651 -4.2164405,-0.25519 -0.5361178,-2.18728 -0.3081729,-4.77604 2.5833083,-3.98569 2.3490542,-0.0502 4.6987992,-0.045 7.0482242,-0.0631 l -2.145808,2.1519 v -10e-6 c -0.787339,0.67021 -1.438653,1.67456 -2.305395,2.14973 m 26.875293,-2.79807 c -1.098113,1.42353 -4.012447,3.40403 -3.926221,4.55296 5.711334,0.0784 11.447976,0.21423 17.147015,-0.076 -2.819721,-3.03273 -5.750311,-5.97296 -8.773818,-8.80257 -1.535885,1.3842 -2.973946,2.87536 -4.446976,4.32556 z m -3.097344,0.64334 c -0.78696,0.67005 -1.437834,1.66836 -2.304098,2.14712 -0.934397,-0.069 -2.05948,0.32189 -2.608159,-0.67755 -1.204088,-1.20556 -2.408177,-2.41113 -3.612266,-3.61669 h 10.669014 c -0.71483,0.71571 -1.429661,1.43141 -2.144491,2.14712 z m 21.24653,-2.04281 c 2.196336,-0.50103 2.17323,5.25581 -0.394422,4.14221 -1.213686,-0.0762 -2.5876,0.21679 -3.726468,-0.0557 -1.39297,-1.39693 -2.785945,-2.79386 -4.178924,-4.19079 2.766644,0.0179 5.535064,-0.0127 8.299814,0.10427 z"
       sodipodi:nodetypes="cccscccsccccscscccssccccccscccss" />
    <path
       style="fill:none;fill-opacity:1;stroke:#000000;stroke-width:0.1;stroke-miterlimit:4;stroke-dasharray:none;stroke-opacity:1"
       d="m 56.312663,246.36816 c 2.945255,-0.16607 5.444202,3.11253 4.663903,5.90343 -0.612098,1.73287 -2.467116,1.02851 -3.819024,1.17949 -3.542715,0.0194 -7.08543,0.0389 -10.628145,0.0583 -1.249306,-1.03626 -2.218387,-2.66768 -3.775673,-3.14007 -1.318002,0.85419 -2.287138,2.3175 -3.562386,3.12825 -4.715093,0 -9.430186,0 -14.145279,0 -1.24881,-1.03018 -2.212729,-2.67663 -3.77446,-3.12478 -1.32176,0.85031 -2.284398,2.32481 -3.558489,3.13573 -4.481621,-0.0784 -8.9792979,0.0886 -13.4478775,-0.22732 -2.2699052,-1.88051 -0.2841259,-5.53831 1.9137716,-6.58243 4.6287159,-0.77038 9.3774159,-0.36903 14.0579599,-0.50036 12.024788,0.0114 24.05295,-0.0454 36.075699,0.16975 z"
       id="path10957" />
    <path
       style="fill:none;fill-opacity:1;stroke:#000000;stroke-width:0.1;stroke-miterlimit:4;stroke-dasharray:none;stroke-opacity:1"
       d="m 58.62509,245.30138 c 2.745766,1.43282 5.36554,5.21364 3.250393,8.17173 -0.609251,1.2101 -2.847155,1.07405 -2.311465,2.74019 0.162495,1.98771 0.008,4.10478 -1.547216,5.3266 1.703979,1.31552 1.744047,3.48798 3.951267,4.31057 2.240738,2.17142 -1.262941,4.48798 -1.221067,6.06027 3.00007,2.70243 1.911509,7.27861 0.212983,10.38746 -3.543709,6.1606 -10.490851,9.23036 -17.057749,11.04979 -5.589734,1.57697 -11.48172,1.64434 -17.231835,1.24053 -8.097034,-1.29019 -16.772085,-3.84235 -22.086025,-10.52243 -2.1157448,-2.84368 -3.5807098,-6.74927 -2.3424687,-10.23156 0.9008293,-1.40545 2.5817869,-2.59791 0.431648,-3.7566 -2.307071,-2.43094 0.1809603,-4.93231 2.0646261,-6.1546 0.145865,-1.78647 2.9155484,-2.54498 0.391356,-3.80996 -0.8310085,-2.4054 0.6585603,-5.49493 -2.4879857,-6.49943 -2.25886562,-2.6945 0.1384555,-6.50542 2.6549591,-8.05145 0.9826932,-0.79005 2.1616426,-0.84781 3.3635087,-0.76433 16.3216025,-0.004 32.6432045,-0.008 48.9648065,-0.0115 0.33335,0.17148 0.667318,0.34391 1.000264,0.51477 z"
       id="path10953" />
  </g>
</svg>
